<?xml version='1.0' encoding='utf-8'?>
<svg xmlns="http://www.w3.org/2000/svg" width="1920" height="1080" viewBox="0 0 1920 1080" data-theme="light">
  <style>
        @font-face {
            font-family: 'Inter';
            src: url('assets/fonts/Inter-Regular.ttf') format('truetype');
            font-weight: 400;
            font-style: normal;
            font-display: swap;
        }
        @font-face {
            font-family: 'Inter';
            src: url('assets/fonts/Inter-Bold.ttf') format('truetype');
            font-weight: 600;
            font-style: normal;
            font-display: swap;
        }
        @font-face {
            font-family: 'Inter';
            src: url('assets/fonts/Inter-Bold.ttf') format('truetype');
            font-weight: 800;
            font-style: normal;
            font-display: swap;
        }
        
:root {
    --background: #f8fafc;
    --panel: #ffffff;
    --primary-text: #0f172a;
    --muted-text: #64748b;
    --inverse-text: #ffffff;
    --border: #e2e8f0;
    --shadow-color: #000000;
    --icon-pad-bg: #1e293b;
    --art-glow: #0891b2;
    --art-glow-opacity: 0.10;
    --art-sheen: #ffffff;
    --art-sheen-opacity: 0.34;
    --art-shadow: #0f172a;
    --art-shadow-opacity: 0.14;
    --art-muted-line: #94a3b8;
    --art-panel-tint: #f1f5f9;
    --font-family: 'Inter', 'Segoe UI', 'Kalam', Roboto, Helvetica, Arial, sans-serif;
    --radius-xl: 16px;
    --font-family-headline: 'Inter', 'Segoe UI', 'Kalam', Roboto, Helvetica, Arial, sans-serif;
    --font-family-body: 'Inter', 'Segoe UI', 'Kalam', Roboto, Helvetica, Arial, sans-serif;
    --font-heading: 'Inter', 'Segoe UI', 'Kalam', Roboto, Helvetica, Arial, sans-serif;
    --font-body: 'Inter', 'Segoe UI', 'Kalam', Roboto, Helvetica, Arial, sans-serif;
    --font-size-h1: 56px;
    --font-size-h2: 40px;
    --font-size-h3: 28px;
    --font-size-body: 24px;
    --font-size-caption: 18px;
    --secondary-text: var(--muted-text);
    --panel-border: var(--border);
    --font-weight-normal: 400;
    --font-weight-medium: 500;
    --font-weight-semibold: 600;
    --font-weight-bold: 700;
    --spacing-gutter-pct: 0.07;
    --spacing-top-pct: 0.15;
    --spacing-bottom-pct: 0.07;
    --spacing-title-y-pct: 0.055;
    --accent-1: #0891b2;
    --accent-2: #db2777;
    --accent-3: #ca8a04;
    --accent-4: #65a30d;
    --accent-5: #ea580c;
    --accent-6: #9333ea;
}
:root[data-theme="dark"] {
    --background: #0f172a;
    --panel: #1e293b;
    --primary-text: #f1f5f9;
    --muted-text: #94a3b8;
    --inverse-text: #0f172a;
    --border: #334155;
    --shadow-color: #000000;
    --icon-pad-bg: #1e293b;
    --art-glow: #7dd3fc;
    --art-glow-opacity: 0.18;
    --art-sheen: #ffffff;
    --art-sheen-opacity: 0.18;
    --art-shadow: #000000;
    --art-shadow-opacity: 0.28;
    --art-muted-line: #64748b;
    --art-panel-tint: #1e293b;
    --accent-1: #22d3ee;
    --accent-2: #f472b6;
    --accent-3: #facc15;
    --accent-4: #a3e635;
    --accent-5: #fb923c;
    --accent-6: #c084fc;
}
:root[data-theme="light"] {
    --background: #f8fafc;
    --panel: #ffffff;
    --primary-text: #0f172a;
    --muted-text: #64748b;
    --inverse-text: #ffffff;
    --border: #e2e8f0;
    --shadow-color: #000000;
    --icon-pad-bg: #1e293b;
    --art-glow: #0891b2;
    --art-glow-opacity: 0.10;
    --art-sheen: #ffffff;
    --art-sheen-opacity: 0.34;
    --art-shadow: #0f172a;
    --art-shadow-opacity: 0.14;
    --art-muted-line: #94a3b8;
    --art-panel-tint: #f1f5f9;
    --accent-1: #0891b2;
    --accent-2: #db2777;
    --accent-3: #ca8a04;
    --accent-4: #65a30d;
    --accent-5: #ea580c;
    --accent-6: #9333ea;
}</style>
  <rect x="0" y="0" width="1.92E+3" height="1.08E+3" fill="#252a34" stroke="none" id="programmatic_background"/>
  <line id="HEADER_DECOR" x1="960.0" x2="1080.0" y1="79.0" y2="79.0" stroke="var(--accent-1)" stroke-width="6" stroke-linecap="round"/>
  <defs>
    <pattern id="svg48decb58-napkin-hatch" patternUnits="userSpaceOnUse" width="12" height="12">
      <path d="M -3 12 L 12 -3 M 0 15 L 15 0" fill="none" stroke="var(--primary-text)" stroke-width="1" stroke-opacity="0.05"/>
    </pattern>
    <filter id="svg48decb58-shadow" x="-30%" y="-30%" width="160%" height="160%">
      <feDropShadow dx="0" dy="2" stdDeviation="3" flood-color="#000000" flood-opacity="0.08"/>
    </filter>
    <linearGradient id="svg48decb58-summit-grad" x1="0%" y1="0%" x2="0%" y2="100%">
      <stop offset="0%" stop-color="var(--muted-text)"/>
      <stop offset="100%" stop-color="var(--panel)"/>
    </linearGradient>
    <linearGradient id="svg48decb58-snow-grad" x1="0%" y1="0%" x2="0%" y2="100%">
      <stop offset="0%" stop-color="var(--background)"/>
      <stop offset="100%" stop-color="var(--muted-text)"/>
    </linearGradient>
    <radialGradient id="svg48decb58-universal-edge-vignette" cx="50%" cy="50%" r="72%">
      <stop offset="0%" stop-color="var(--background)" stop-opacity="0"/>
      <stop offset="72%" stop-color="var(--background)" stop-opacity="0.12"/>
      <stop offset="100%" stop-color="var(--primary-text)" stop-opacity="0.08"/>
    </radialGradient>
    <linearGradient id="svg48decb58-universal-surface-sheen" x1="0%" y1="0%" x2="100%" y2="100%">
      <stop offset="0%" stop-color="var(--art-sheen)" stop-opacity="var(--art-sheen-opacity)"/>
      <stop offset="46%" stop-color="var(--art-sheen)" stop-opacity="0.035"/>
      <stop offset="100%" stop-color="var(--art-panel-tint)" stop-opacity="0.14"/>
    </linearGradient>
    <radialGradient id="svg48decb58-universal-icon-aura" cx="50%" cy="42%" r="64%">
      <stop offset="0%" stop-color="var(--art-glow)" stop-opacity="var(--art-glow-opacity)"/>
      <stop offset="100%" stop-color="var(--background)" stop-opacity="0"/>
    </radialGradient>
    <filter id="svg48decb58-text-glow" x="-20%" y="-20%" width="140%" height="140%">
      <feDropShadow dx="0" dy="0" stdDeviation="2" flood-color="#000000" flood-opacity="0.4"/>
    </filter>
    <marker id="svg48decb58-arrowhead" markerWidth="10" markerHeight="7" refX="9" refY="3.5" orient="auto" markerUnits="strokeWidth">
      <polygon points="0 0, 10 3.5, 0 7" fill="var(--muted-text)" opacity="0.6"/>
    </marker>
  </defs>
  <rect width="100%" height="100%" fill="var(--background)" id="CANVAS_BG"/>
  <rect width="100%" height="100%" fill="url(#svg48decb58-napkin-hatch)"/>
  <rect id="UNIVERSAL_EDGE_VIGNETTE" width="100%" height="100%" fill="url(#svg48decb58-universal-edge-vignette)" opacity="0.62"/>
  <text id="TITLE" x="960.0" y="59" font-size="48" font-weight="700" fill="#0f172a" text-anchor="middle" style="font-size: 60px; font-family: Inter, Segoe UI, Kalam, Roboto, Helvetica, Arial, sans-serif; font-weight: 700; letter-spacing:-1.2px;" data-final-font-size="60">
    <tspan x="960.0" dy="68.00px">Cold War Context and Durability</tspan>
  </text>
  <rect id="TITLE_FRAME" x="134" y="10" width="1652" height="60" fill="none"/>
  <g id="DIAGRAM_MAIN">
    <!-- Mountain Base -->
    <path d="M -100 1080  L -25.0 1007.0 L 65.0 874.0 L 65.0 821.0 L 155.0 688.0 L 245.0 635.0 L 245.0 502.0 L 335.0 449.0 L 425.0 316.0 L 425.0 263.0 L 500 150 L 580.0 258.0 L 600.0 381.0 L 700.0 414.0 L 720.0 537.0 L 820.0 660.0 L 840.0 693.0 L 940.0 816.0 L 960.0 939.0 L 1060.0 972.0 L 1100 1080 Z" fill="url(#svg48decb58-summit-grad)" stroke="var(--primary-text)" stroke-width="3" stroke-linejoin="round" stroke-opacity="0.4"/>
    <!-- Snow Cap -->
    <path d="M 380 300 L 420 280 L 470 310 L 520 280 L 560 320 L 600 290 L 640 340 L 500 150 Z" fill="url(#svg48decb58-snow-grad)" stroke="var(--primary-text)" stroke-width="2" stroke-linejoin="round" stroke-opacity="0.6"/>
    <!-- Connecting Zig-Zag Trail -->
    <path d="M 983.8709677419354 900.0 L 870.9677419354839 725.0 L 758.0645161290322 550.0 L 645.1612903225806 375.0 L 532.258064516129 240.0" fill="none" stroke="var(--muted-text)" stroke-width="4" stroke-dasharray="12 10" stroke-linecap="round" opacity="0.6"/>
    <circle id="ITEM_1_BORDER" cx="983.8709677419354" cy="900.0" r="37" fill="var(--background)" stroke="var(--accent-1)" stroke-width="3"/>
    <circle id="ITEM_1_STROKE" cx="983.8709677419354" cy="900.0" r="45" fill="transparent" stroke="var(--accent-5)" stroke-width="3" stroke-dasharray="6 4" stroke-opacity="1.0"/>
    <circle id="ITEM_1_PAD" cx="983.87" cy="900.00" r="40.00" fill="var(--icon-pad-bg)" stroke="var(--primary-text)" stroke-width="2" opacity="0.9"/>
    <circle id="ITEM_1_PAD_INNER" cx="983.87" cy="900.00" r="31.20" fill="var(--accent-5)" fill-opacity="0.22"/>
    <g id="ITEM_1_ICON" transform="translate(958.8709677419354, 875.0)" data-icon-size="50" stroke-dasharray="6 4">
      <g transform="translate(-10.65714285714286,-14.0) scale(2.2285714285714286)">
        <path d="M2 15H30V28C30 29.1046 29.1046 30 28 30H4C2.89543 30 2 29.1046 2 28V15Z" fill="#8C5543"/>
        <path d="M11.1 9H4C2.89543 9 2 9.89543 2 11V15C2 17.2091 3.79086 19 6 19H26C28.2091 19 30 17.2091 30 15V11C30 9.89543 29.1046 9 28 9H20.9C20.4367 6.71776 18.419 5 16 5C13.581 5 11.5633 6.71776 11.1 9ZM13.1707 9C13.5825 7.83481 14.6938 7 16 7C17.3062 7 18.4175 7.83481 18.8293 9H13.1707Z" fill="#6D4534"/>
        <path d="M13 19L16 18L19 19V21C19 21.5523 18.5523 22 18 22H14C13.4477 22 13 21.5523 13 21V19Z" fill="#D3883E"/>
        <path d="M13 18C13 17.4477 13.4477 17 14 17H18C18.5523 17 19 17.4477 19 18V19H13V18Z" fill="#E19747"/>
      </g>
    </g>
    <!-- Connector line to the rigid text column -->
    <line id="ITEM_1_CONN" x1="1028.8709677419354" y1="900.0" x2="1230" y2="900.0" stroke="var(--accent-5)" stroke-width="2" stroke-dasharray="6 4" opacity="0.6" stroke-opacity="1.0"/>
    <circle id="ITEM_1_DOT" cx="1230" cy="900.0" r="5" fill="var(--accent-5)" fill-opacity="1.0"/>
    <rect id="ITEM_1_HEAD_FRAME" x="1250" y="840.0" width="620" height="45" fill="none"/>
    <rect id="ITEM_1_TEXT_BG" x="1232" y="826" width="656" height="182" rx="22" fill="var(--panel)" fill-opacity="0.94" stroke="var(--accent-1)" stroke-width="2"/>
    <text id="ITEM_1_HEAD" x="1250.0" y="840.0" font-weight="bold" font-size="28" fill="var(--primary-text)" text-anchor="start" data-bg-id="ITEM_1_TEXT_BG" fill-opacity="1.0" style="font-size: 30px; font-family: Inter, Segoe UI, Kalam, Roboto, Helvetica, Arial, sans-serif; font-weight: 700; letter-spacing:-0.4px;" data-final-font-size="30">
      <tspan x="1250.0" dy="30.75px">Intelligence Interest</tspan>
    </text>
    <rect id="ITEM_1_BODY_FRAME" x="1250" y="905.0" width="620" height="85" fill="none"/>
    <text id="ITEM_1_BODY" x="1250.0" y="905.0" font-size="18" fill="var(--primary-text)" text-anchor="start" data-bg-id="ITEM_1_TEXT_BG" style="font-size: 26px; font-family: Inter, Segoe UI, Kalam, Roboto, Helvetica, Arial, sans-serif; font-weight: 400;" data-final-font-size="26">
      <tspan x="1250.0" dy="25.84px">Public fascination with classified agency</tspan>
      <tspan x="1250.0" dy="29.90px">research fueled the story</tspan>
    </text>
    <circle id="ITEM_2_BORDER" cx="870.9677419354839" cy="725.0" r="37" fill="var(--background)" stroke="var(--accent-2)" stroke-width="3"/>
    <circle id="ITEM_2_STROKE" cx="870.9677419354839" cy="725.0" r="45" fill="transparent" stroke="var(--accent-6)" stroke-width="3" stroke-dasharray="6 4" stroke-opacity="1.0"/>
    <circle id="ITEM_2_PAD" cx="870.97" cy="725.00" r="40.00" fill="var(--icon-pad-bg)" stroke="var(--primary-text)" stroke-width="2" opacity="0.9"/>
    <circle id="ITEM_2_PAD_INNER" cx="870.97" cy="725.00" r="31.20" fill="var(--accent-6)" fill-opacity="0.22"/>
    <g id="ITEM_2_ICON" transform="translate(845.9677419354839, 700.0)" data-icon-size="50" stroke-dasharray="6 4">
      <g transform="translate(-8.844067796610172,-8.844067796610172) scale(2.820338983050848)" vector-effect="non-scaling-stroke" stroke-width="2.31" stroke-linecap="round" stroke-linejoin="round" stroke-opacity="1.0">
        <path d="M3.85 8.62a4 4 0 0 1 4.78-4.77 4 4 0 0 1 6.74 0 4 4 0 0 1 4.78 4.78 4 4 0 0 1 0 6.74 4 4 0 0 1-4.77 4.78 4 4 0 0 1-6.75 0 4 4 0 0 1-4.78-4.77 4 4 0 0 1 0-6.76Z" vector-effect="non-scaling-stroke" fill="none" stroke="#f1f5f9"/>
      </g>
    </g>
    <!-- Connector line to the rigid text column -->
    <line id="ITEM_2_CONN" x1="915.9677419354839" y1="725.0" x2="1230" y2="725.0" stroke="var(--accent-6)" stroke-width="2" stroke-dasharray="6 4" opacity="0.6" stroke-opacity="1.0"/>
    <circle id="ITEM_2_DOT" cx="1230" cy="725.0" r="5" fill="var(--accent-6)" fill-opacity="1.0"/>
    <rect id="ITEM_2_HEAD_FRAME" x="1250" y="665.0" width="620" height="45" fill="none"/>
    <rect id="ITEM_2_TEXT_BG" x="1232" y="651" width="656" height="182" rx="22" fill="var(--panel)" fill-opacity="0.94" stroke="var(--accent-2)" stroke-width="2"/>
    <text id="ITEM_2_HEAD" x="1250.0" y="665.0" font-weight="bold" font-size="28" fill="var(--accent-6)" text-anchor="start" data-bg-id="ITEM_2_TEXT_BG" fill-opacity="1.0" style="font-size: 30px; font-family: Inter, Segoe UI, Kalam, Roboto, Helvetica, Arial, sans-serif; font-weight: 700; letter-spacing:-0.4px;" data-final-font-size="30">
      <tspan x="1250.0" dy="30.75px">Government Validation</tspan>
    </text>
    <rect id="ITEM_2_BODY_FRAME" x="1250" y="730.0" width="620" height="85" fill="none"/>
    <text id="ITEM_2_BODY" x="1250.0" y="730.0" font-size="18" fill="var(--primary-text)" text-anchor="start" data-bg-id="ITEM_2_TEXT_BG" style="font-size: 26px; font-family: Inter, Segoe UI, Kalam, Roboto, Helvetica, Arial, sans-serif; font-weight: 400;" data-final-font-size="26">
      <tspan x="1250.0" dy="25.84px">Military interest made the subject appear like</tspan>
      <tspan x="1250.0" dy="29.90px">a frontier</tspan>
    </text>
    <circle id="ITEM_3_BORDER" cx="758.0645161290322" cy="550.0" r="37" fill="var(--background)" stroke="var(--accent-3)" stroke-width="3"/>
    <circle id="ITEM_3_STROKE" cx="758.0645161290322" cy="550.0" r="45" fill="transparent" stroke="var(--accent-1)" stroke-width="3" stroke-dasharray="6 4" stroke-opacity="1.0"/>
    <circle id="ITEM_3_PAD" cx="758.06" cy="550.00" r="40.00" fill="var(--icon-pad-bg)" stroke="var(--primary-text)" stroke-width="2" opacity="0.9"/>
    <circle id="ITEM_3_PAD_INNER" cx="758.06" cy="550.00" r="31.20" fill="var(--accent-1)" fill-opacity="0.22"/>
    <g id="ITEM_3_ICON" transform="translate(733.0645161290322, 525.0)" data-icon-size="50" stroke-dasharray="6 4">
      <g transform="translate(-9.427586206896555,-9.427586206896555) scale(2.8689655172413797)" vector-effect="non-scaling-stroke" stroke-width="2.31" stroke-linecap="round" stroke-linejoin="round" stroke-opacity="1.0">
        <path d="M5 8C5 5.17157 5 3.75736 5.87868 2.87868C6.75736 2 8.17157 2 11 2H13C15.8284 2 17.2426 2 18.1213 2.87868C19 3.75736 19 5.17157 19 8V16C19 18.8284 19 20.2426 18.1213 21.1213C17.2426 22 15.8284 22 13 22H11C8.17157 22 6.75736 22 5.87868 21.1213C5 20.2426 5 18.8284 5 16V8Z" stroke="#f1f5f9" vector-effect="non-scaling-stroke" fill="none"/>
        <path d="M5 4.07617C4.02491 4.17208 3.36857 4.38885 2.87868 4.87873C2 5.75741 2 7.17163 2 10.0001V14.0001C2 16.8285 2 18.2427 2.87868 19.1214C3.36857 19.6113 4.02491 19.828 5 19.9239" stroke="#f1f5f9" vector-effect="non-scaling-stroke" fill="none"/>
        <path d="M19 4.07617C19.9751 4.17208 20.6314 4.38885 21.1213 4.87873C22 5.75741 22 7.17163 22 10.0001V14.0001C22 16.8285 22 18.2427 21.1213 19.1214C20.6314 19.6113 19.9751 19.828 19 19.9239" stroke="#f1f5f9" vector-effect="non-scaling-stroke" fill="none"/>
        <path d="M9 13H15" stroke="#f1f5f9" vector-effect="non-scaling-stroke" fill="none"/>
        <path d="M9 9H15" stroke="#f1f5f9" vector-effect="non-scaling-stroke" fill="none"/>
        <path d="M9 17H12" stroke="#f1f5f9" vector-effect="non-scaling-stroke" fill="none"/>
      </g>
    </g>
    <!-- Connector line to the rigid text column -->
    <line id="ITEM_3_CONN" x1="803.0645161290322" y1="550.0" x2="1230" y2="550.0" stroke="var(--accent-1)" stroke-width="2" stroke-dasharray="6 4" opacity="0.6" stroke-opacity="1.0"/>
    <circle id="ITEM_3_DOT" cx="1230" cy="550.0" r="5" fill="var(--accent-1)" fill-opacity="1.0"/>
    <rect id="ITEM_3_HEAD_FRAME" x="1250" y="490.0" width="620" height="45" fill="none"/>
    <rect id="ITEM_3_TEXT_BG" x="1232" y="476" width="656" height="182" rx="22" fill="var(--panel)" fill-opacity="0.94" stroke="var(--accent-3)" stroke-width="2"/>
    <text id="ITEM_3_HEAD" x="1250.0" y="490.0" font-weight="bold" font-size="28" fill="var(--primary-text)" text-anchor="start" data-bg-id="ITEM_3_TEXT_BG" fill-opacity="1.0" style="font-size: 30px; font-family: Inter, Segoe UI, Kalam, Roboto, Helvetica, Arial, sans-serif; font-weight: 700; letter-spacing:-0.4px;" data-final-font-size="30">
      <tspan x="1250.0" dy="30.75px">Declassified Documents</tspan>
    </text>
    <rect id="ITEM_3_BODY_FRAME" x="1250" y="555.0" width="620" height="85" fill="none"/>
    <text id="ITEM_3_BODY" x="1250.0" y="555.0" font-size="18" fill="var(--primary-text)" text-anchor="start" data-bg-id="ITEM_3_TEXT_BG" style="font-size: 26px; font-family: Inter, Segoe UI, Kalam, Roboto, Helvetica, Arial, sans-serif; font-weight: 400;" data-final-font-size="26">
      <tspan x="1250.0" dy="25.84px">CIA records later confirmed government attention</tspan>
      <tspan x="1250.0" dy="29.90px">to psychic research</tspan>
    </text>
    <circle id="ITEM_4_BORDER" cx="645.1612903225806" cy="375.0" r="37" fill="var(--background)" stroke="var(--accent-4)" stroke-width="3"/>
    <circle id="ITEM_4_STROKE" cx="645.1612903225806" cy="375.0" r="45" fill="transparent" stroke="var(--accent-2)" stroke-width="3" stroke-dasharray="6 4" stroke-opacity="1.0"/>
    <circle id="ITEM_4_PAD" cx="645.16" cy="375.00" r="40.00" fill="var(--icon-pad-bg)" stroke="var(--primary-text)" stroke-width="2" opacity="0.9"/>
    <circle id="ITEM_4_PAD_INNER" cx="645.16" cy="375.00" r="31.20" fill="var(--accent-2)" fill-opacity="0.22"/>
    <g id="ITEM_4_ICON" transform="translate(620.1612903225806, 350.0)" data-icon-size="50" stroke-dasharray="6 4">
      <g transform="translate(-9.542857142857146,-10.37857142857143) scale(2.2285714285714286)">
        <path d="M14.3675 5.87431L10.6615 3.30015C10.2652 3.02489 9.72534 3.12861 9.44275 3.51981L1.77125 14.5646C1.496 14.9609 1.59462 15.5081 1.99091 15.7833L5.69698 18.3575C6.09327 18.6328 6.64046 18.5341 6.91571 18.1378L14.5872 7.09304C14.8625 6.69675 14.7638 6.14956 14.3675 5.87431ZM16.6809 25.9761L20.3869 28.5502C20.7832 28.8255 21.3253 28.7342 21.6006 28.3379L29.272 17.2931C29.5473 16.8968 29.4487 16.3496 29.0524 16.0744L25.3463 13.5002C24.95 13.225 24.4028 13.3236 24.1276 13.7199L16.4612 24.7573C16.1859 25.1536 16.2846 25.7008 16.6809 25.9761Z" fill="#635994"/>
        <path d="M21.4869 12.9951L19.3688 10.6316L16.2031 9.32501L15.1836 10.7928L17.5195 13.2275L20.4675 14.4628L21.4869 12.9951Z" fill="#998EA4"/>
        <path d="M12.4766 13.2646L11.0088 12.2451L10.4991 12.979L11.9668 13.9985L12.4766 13.2646ZM19.0888 17.8571L20.5566 18.8765L20.0468 19.6104L18.5791 18.5909L19.0888 17.8571ZM13.5848 19.4848L12.8509 18.9751L11.3217 21.1767L12.0556 21.6865L13.5848 19.4848ZM9.29531 24.1097L10.0365 24.6246L8.50732 26.8262L7.76611 26.3114L9.29531 24.1097Z" fill="#1C1C1C"/>
        <path d="M12.5996 6.82217L10.3979 5.29297L8.86874 7.49459L11.0704 9.02379L12.5996 6.82217ZM7.84939 8.96277L10.051 10.492L8.52181 12.6936L6.32019 11.1644L7.84939 8.96277ZM7.50231 14.1613L5.30069 12.6321L3.77148 14.8337L5.97311 16.3629L7.50231 14.1613ZM25.0828 15.4929L27.2844 17.0221L25.7552 19.2237L23.5536 17.6945L25.0828 15.4929ZM22.5342 19.1624L24.7358 20.6916L23.2066 22.8932L21.005 21.364L22.5342 19.1624ZM22.1872 24.3606L19.9855 22.8314L18.4563 25.033L20.658 26.5622L22.1872 24.3606Z" fill="#BCA4EB"/>
        <path d="M16.1371 9.27938L21.5458 13.0361C21.876 13.2655 22.3311 13.1899 22.5531 12.8546L23.2514 11.8492C23.4808 11.5189 23.4001 11.0712 23.0699 10.8418L17.6612 7.0851C17.331 6.85572 16.8833 6.9364 16.6539 7.26665L15.9556 8.27206C15.7262 8.6023 15.8069 9.05 16.1371 9.27938ZM8.98669 27.7029C8.56441 28.3108 7.72923 28.4613 7.12127 28.0391C6.51331 27.6168 6.36279 26.7816 6.78506 26.1737C7.20734 25.5657 8.04251 25.4152 8.65048 25.8374C9.25844 26.2597 9.40896 27.0949 8.98669 27.7029ZM12.3559 26.2356L6.9766 22.4993C6.40418 22.1017 6.3806 21.2585 6.9266 20.8327C8.43104 19.6691 10.5674 19.5537 12.2112 20.6955C13.8551 21.8373 14.4928 23.8795 13.9278 25.6955C13.7216 26.3683 12.9283 26.6332 12.3559 26.2356ZM10.5301 17.3519L15.9387 21.1087C16.269 21.3381 16.724 21.2625 16.946 20.9271L20.7028 15.5185C20.9322 15.1882 20.8515 14.7405 20.5212 14.5111L15.1126 10.7544C14.7823 10.525 14.3346 10.6057 14.1053 10.936L10.3485 16.3446C10.1191 16.6749 10.1998 17.1226 10.5301 17.3519Z" fill="#B4ACBC"/>
      </g>
    </g>
    <!-- Connector line to the rigid text column -->
    <line id="ITEM_4_CONN" x1="690.1612903225806" y1="375.0" x2="1230" y2="375.0" stroke="var(--accent-2)" stroke-width="2" stroke-dasharray="6 4" opacity="0.6" stroke-opacity="1.0"/>
    <circle id="ITEM_4_DOT" cx="1230" cy="375.0" r="5" fill="var(--accent-2)" fill-opacity="1.0"/>
    <rect id="ITEM_4_HEAD_FRAME" x="1250" y="315.0" width="620" height="45" fill="none"/>
    <rect id="ITEM_4_TEXT_BG" x="1232" y="301" width="656" height="182" rx="22" fill="var(--panel)" fill-opacity="0.94" stroke="var(--accent-4)" stroke-width="2"/>
    <text id="ITEM_4_HEAD" x="1250.0" y="315.0" font-weight="bold" font-size="28" fill="var(--accent-2)" text-anchor="start" data-bg-id="ITEM_4_TEXT_BG" fill-opacity="1.0" style="font-size: 30px; font-family: Inter, Segoe UI, Kalam, Roboto, Helvetica, Arial, sans-serif; font-weight: 700; letter-spacing:-0.4px;" data-final-font-size="30">
      <tspan x="1250.0" dy="30.75px">Technological Competition</tspan>
    </text>
    <rect id="ITEM_4_BODY_FRAME" x="1250" y="380.0" width="620" height="85" fill="none"/>
    <text id="ITEM_4_BODY" x="1250.0" y="380.0" font-size="18" fill="var(--primary-text)" text-anchor="start" data-bg-id="ITEM_4_TEXT_BG" style="font-size: 26px; font-family: Inter, Segoe UI, Kalam, Roboto, Helvetica, Arial, sans-serif; font-weight: 400;" data-final-font-size="26">
      <tspan x="1250.0" dy="25.84px">Cold War rivalry encouraged research outside</tspan>
      <tspan x="1250.0" dy="29.90px">conventional boundaries</tspan>
    </text>
    <circle id="ITEM_5_BORDER" cx="532.258064516129" cy="240.0" r="37" fill="var(--background)" stroke="var(--accent-5)" stroke-width="3"/>
    <circle id="ITEM_5_STROKE" cx="532.258064516129" cy="240.0" r="45" fill="transparent" stroke="var(--accent-3)" stroke-width="3" stroke-dasharray="6 4" stroke-opacity="1.0"/>
    <circle id="ITEM_5_PAD" cx="532.26" cy="240.00" r="40.00" fill="var(--icon-pad-bg)" stroke="var(--primary-text)" stroke-width="2" opacity="0.9"/>
    <circle id="ITEM_5_PAD_INNER" cx="532.26" cy="240.00" r="31.20" fill="var(--accent-3)" fill-opacity="0.22"/>
    <g id="ITEM_5_ICON" transform="translate(507.258064516129, 215.0)" data-icon-size="50" stroke-dasharray="6 4">
      <g transform="translate(-16.6,-16.6) scale(3.466666666666667)" vector-effect="non-scaling-stroke" fill="#f1f5f9" fill-opacity="1.0" stroke="none">
        <path fill="#f1f5f9" d="M9 3v15h3V3zm3 2l4 13l3-1l-4-13zM5 5v13h3V5zM3 19v2h18v-2z" vector-effect="non-scaling-stroke" stroke="none"/>
      </g>
    </g>
    <!-- Connector line to the rigid text column -->
    <line id="ITEM_5_CONN" x1="577.258064516129" y1="240.0" x2="1230" y2="240.0" stroke="var(--accent-3)" stroke-width="2" stroke-dasharray="6 4" opacity="0.6" stroke-opacity="1.0"/>
    <circle id="ITEM_5_DOT" cx="1230" cy="240.0" r="5" fill="var(--accent-3)" fill-opacity="1.0"/>
    <rect id="ITEM_5_HEAD_FRAME" x="1250" y="180.0" width="620" height="45" fill="none"/>
    <rect id="ITEM_5_TEXT_BG" x="1232" y="166" width="656" height="182" rx="22" fill="var(--panel)" fill-opacity="0.94" stroke="var(--accent-5)" stroke-width="2"/>
    <text id="ITEM_5_HEAD" x="1250.0" y="180.0" font-weight="bold" font-size="28" fill="var(--primary-text)" text-anchor="start" data-bg-id="ITEM_5_TEXT_BG" fill-opacity="1.0" style="font-size: 30px; font-family: Inter, Segoe UI, Kalam, Roboto, Helvetica, Arial, sans-serif; font-weight: 700; letter-spacing:-0.4px;" data-final-font-size="30">
      <tspan x="1250.0" dy="30.75px">Foundational Text</tspan>
    </text>
    <rect id="ITEM_5_BODY_FRAME" x="1250" y="245.0" width="620" height="85" fill="none"/>
    <text id="ITEM_5_BODY" x="1250.0" y="245.0" font-size="18" fill="var(--primary-text)" text-anchor="start" data-bg-id="ITEM_5_TEXT_BG" style="font-size: 26px; font-family: Inter, Segoe UI, Kalam, Roboto, Helvetica, Arial, sans-serif; font-weight: 400;" data-final-font-size="26">
      <tspan x="1250.0" dy="25.84px">Mind-Reach became the primary source</tspan>
      <tspan x="1250.0" dy="29.90px">for later media reports</tspan>
    </text>
  </g>
</svg>
