<?xml version='1.0' encoding='utf-8'?>
<svg xmlns="http://www.w3.org/2000/svg" width="1920" height="1080" viewBox="0 0 1920 1080" data-theme="dark">
  <style>
        @font-face {
            font-family: 'Inter';
            src: url('assets/fonts/Inter-Regular.ttf') format('truetype');
            font-weight: 400;
            font-style: normal;
            font-display: swap;
        }
        @font-face {
            font-family: 'Inter';
            src: url('assets/fonts/Inter-Bold.ttf') format('truetype');
            font-weight: 600;
            font-style: normal;
            font-display: swap;
        }
        @font-face {
            font-family: 'Inter';
            src: url('assets/fonts/Inter-Bold.ttf') format('truetype');
            font-weight: 800;
            font-style: normal;
            font-display: swap;
        }
        
:root {
    --background: #0f172a;
    --panel: #1e293b;
    --primary-text: #f1f5f9;
    --muted-text: #94a3b8;
    --inverse-text: #0f172a;
    --border: #334155;
    --shadow-color: #000000;
    --icon-pad-bg: #1e293b;
    --art-glow: #7dd3fc;
    --art-glow-opacity: 0.18;
    --art-sheen: #ffffff;
    --art-sheen-opacity: 0.18;
    --art-shadow: #000000;
    --art-shadow-opacity: 0.28;
    --art-muted-line: #64748b;
    --art-panel-tint: #1e293b;
    --font-family: 'Inter', 'Segoe UI', 'Kalam', Roboto, Helvetica, Arial, sans-serif;
    --radius-xl: 16px;
    --font-family-headline: 'Inter', 'Segoe UI', 'Kalam', Roboto, Helvetica, Arial, sans-serif;
    --font-family-body: 'Inter', 'Segoe UI', 'Kalam', Roboto, Helvetica, Arial, sans-serif;
    --font-heading: 'Inter', 'Segoe UI', 'Kalam', Roboto, Helvetica, Arial, sans-serif;
    --font-body: 'Inter', 'Segoe UI', 'Kalam', Roboto, Helvetica, Arial, sans-serif;
    --font-size-h1: 56px;
    --font-size-h2: 40px;
    --font-size-h3: 28px;
    --font-size-body: 24px;
    --font-size-caption: 18px;
    --secondary-text: var(--muted-text);
    --panel-border: var(--border);
    --font-weight-normal: 400;
    --font-weight-medium: 500;
    --font-weight-semibold: 600;
    --font-weight-bold: 700;
    --spacing-gutter-pct: 0.07;
    --spacing-top-pct: 0.15;
    --spacing-bottom-pct: 0.07;
    --spacing-title-y-pct: 0.055;
    --accent-1: #fbbf24;
    --accent-2: #fb923c;
    --accent-3: #f87171;
    --accent-4: #a3e635;
    --accent-5: #4ade80;
    --accent-6: #d4a574;
}
:root[data-theme="dark"] {
    --background: #0f172a;
    --panel: #1e293b;
    --primary-text: #f1f5f9;
    --muted-text: #94a3b8;
    --inverse-text: #0f172a;
    --border: #334155;
    --shadow-color: #000000;
    --icon-pad-bg: #1e293b;
    --art-glow: #7dd3fc;
    --art-glow-opacity: 0.18;
    --art-sheen: #ffffff;
    --art-sheen-opacity: 0.18;
    --art-shadow: #000000;
    --art-shadow-opacity: 0.28;
    --art-muted-line: #64748b;
    --art-panel-tint: #1e293b;
    --accent-1: #fbbf24;
    --accent-2: #fb923c;
    --accent-3: #f87171;
    --accent-4: #a3e635;
    --accent-5: #4ade80;
    --accent-6: #d4a574;
}
:root[data-theme="light"] {
    --background: #f8fafc;
    --panel: #ffffff;
    --primary-text: #0f172a;
    --muted-text: #64748b;
    --inverse-text: #ffffff;
    --border: #e2e8f0;
    --shadow-color: #000000;
    --icon-pad-bg: #1e293b;
    --art-glow: #0891b2;
    --art-glow-opacity: 0.10;
    --art-sheen: #ffffff;
    --art-sheen-opacity: 0.34;
    --art-shadow: #0f172a;
    --art-shadow-opacity: 0.14;
    --art-muted-line: #94a3b8;
    --art-panel-tint: #f1f5f9;
    --accent-1: #d97706;
    --accent-2: #ea580c;
    --accent-3: #dc2626;
    --accent-4: #65a30d;
    --accent-5: #16a34a;
    --accent-6: #92400e;
}</style>
  <rect x="0" y="0" width="1.92E+3" height="1.08E+3" fill="#252a34" stroke="none" id="programmatic_background"/>
  <line id="HEADER_DECOR" x1="960.0" x2="1080.0" y1="135.0" y2="135.0" stroke="var(--accent-1)" stroke-width="6" stroke-linecap="round"/>
  <defs>
    <pattern id="svg1d9d0acc-napkin-hatch" patternUnits="userSpaceOnUse" width="12" height="12">
      <path d="M -3 12 L 12 -3 M 0 15 L 15 0" fill="none" stroke="var(--primary-text)" stroke-width="1" stroke-opacity="0.05"/>
    </pattern>
    <filter id="svg1d9d0acc-shadow" x="-30%" y="-30%" width="160%" height="160%">
      <feDropShadow dx="0" dy="3" stdDeviation="4" flood-color="#000000" flood-opacity="0.10"/>
      <feDropShadow dx="0" dy="10" stdDeviation="16" flood-color="#000000" flood-opacity="0.12"/>
    </filter>
    <radialGradient id="svg1d9d0acc-universal-edge-vignette" cx="50%" cy="50%" r="72%">
      <stop offset="0%" stop-color="var(--background)" stop-opacity="0"/>
      <stop offset="72%" stop-color="var(--background)" stop-opacity="0.12"/>
      <stop offset="100%" stop-color="var(--primary-text)" stop-opacity="0.08"/>
    </radialGradient>
    <linearGradient id="svg1d9d0acc-universal-surface-sheen" x1="0%" y1="0%" x2="100%" y2="100%">
      <stop offset="0%" stop-color="var(--art-sheen)" stop-opacity="var(--art-sheen-opacity)"/>
      <stop offset="46%" stop-color="var(--art-sheen)" stop-opacity="0.035"/>
      <stop offset="100%" stop-color="var(--art-panel-tint)" stop-opacity="0.14"/>
    </linearGradient>
    <radialGradient id="svg1d9d0acc-universal-icon-aura" cx="50%" cy="42%" r="64%">
      <stop offset="0%" stop-color="var(--art-glow)" stop-opacity="var(--art-glow-opacity)"/>
      <stop offset="100%" stop-color="var(--background)" stop-opacity="0"/>
    </radialGradient>
    <filter id="svg1d9d0acc-text-glow" x="-20%" y="-20%" width="140%" height="140%">
      <feDropShadow dx="0" dy="0" stdDeviation="2" flood-color="#000000" flood-opacity="0.4"/>
    </filter>
    <marker id="svg1d9d0acc-arrowhead" markerWidth="10" markerHeight="7" refX="9" refY="3.5" orient="auto" markerUnits="strokeWidth">
      <polygon points="0 0, 10 3.5, 0 7" fill="var(--muted-text)" opacity="0.6"/>
    </marker>
  </defs>
  <rect id="CANVAS_BG" width="100%" height="100%" fill="var(--background)"/>
  <rect width="100%" height="100%" fill="url(#svg1d9d0acc-napkin-hatch)"/>
  <rect id="UNIVERSAL_EDGE_VIGNETTE" width="100%" height="100%" fill="url(#svg1d9d0acc-universal-edge-vignette)" opacity="0.62"/>
  <text id="TITLE" x="960.0" y="59" text-anchor="middle" font-weight="800" font-size="56" fill="#f1f5f9" style="font-size: 60px; font-family: Inter, Segoe UI, Kalam, Roboto, Helvetica, Arial, sans-serif; font-weight: 700; letter-spacing:-1.2px;" data-final-font-size="60">
    <tspan x="960.0" dy="68.00px">Safeguards for Scientific Integrity</tspan>
  </text>
  <rect id="TITLE_FRAME" x="134" y="59" width="1652" height="103" fill="none"/>
  <g id="FIELD">
    <rect x="170" y="250" width="700" height="280" rx="34" fill="var(--accent-1)" fill-opacity="0.08" stroke="var(--accent-1)" stroke-width="2" stroke-opacity="0.22"/>
    <rect x="1050" y="250" width="700" height="280" rx="34" fill="var(--accent-3)" fill-opacity="0.08" stroke="var(--accent-3)" stroke-width="2" stroke-opacity="0.22"/>
    <rect x="170" y="670" width="700" height="280" rx="34" fill="var(--accent-4)" fill-opacity="0.08" stroke="var(--accent-4)" stroke-width="2" stroke-opacity="0.18"/>
    <rect x="1050" y="670" width="700" height="280" rx="34" fill="var(--accent-6)" fill-opacity="0.08" stroke="var(--accent-6)" stroke-width="2" stroke-opacity="0.18"/>
    <line x1="960" y1="226" x2="960" y2="974" stroke="var(--primary-text)" stroke-width="11" stroke-opacity="0.20"/>
    <line x1="176" y1="600" x2="1744" y2="600" stroke="var(--primary-text)" stroke-width="11" stroke-opacity="0.20"/>
    <path d="M 960 534 L 1028 600 L 960 666 L 892 600 Z" fill="var(--panel)" fill-opacity="0.94" stroke="var(--primary-text)" stroke-width="4" stroke-opacity="0.28"/>
    <circle cx="960" cy="600" r="38" fill="var(--background)" stroke="var(--primary-text)" stroke-width="4"/>
    <g transform="translate(350, 384)">
      <rect id="ITEM_1_BG" x="-250" y="-110" width="500" height="220" rx="30" fill="var(--panel)" fill-opacity="0.95" stroke="var(--accent-1)" stroke-width="3" filter="url(#svg1d9d0acc-shadow)"/>
      <rect x="-250" y="-110" width="500" height="220" rx="18" fill="url(#svg1d9d0acc-universal-surface-sheen)" opacity="0.84"/>
      <rect x="204" y="-82" width="16" height="164" rx="8" fill="var(--accent-1)" fill-opacity="0.22"/>
      <circle cx="176" cy="-16" r="72" fill="none" stroke="var(--accent-1)" stroke-width="2.5" stroke-opacity="0.14"/>
      <text id="ITEM_1_HEAD" x="-204.0" y="-82.0" text-anchor="start" font-weight="700" font-size="28" fill="var(--accent-4)" data-bg-id="ITEM_1_BG" fill-opacity="1.0" stroke="none" style="font-size: 30px; font-family: Inter, Segoe UI, Kalam, Roboto, Helvetica, Arial, sans-serif; font-weight: 700; letter-spacing:-0.4px;" data-final-font-size="30">
        <tspan x="-204.0" dy="27.25px">Blind Judging</tspan>
      </text>
      <rect id="ITEM_1_HEAD_FRAME" x="-204" y="-82" width="310" height="38" fill="none"/>
      <text id="ITEM_1_BODY" x="-204.0" y="-32.0" text-anchor="start" font-size="19" fill="var(--primary-text)" data-bg-id="ITEM_1_BG" style="font-size: 26px; font-family: Inter, Segoe UI, Kalam, Roboto, Helvetica, Arial, sans-serif; font-weight: 400;" data-final-font-size="26">
        <tspan x="-204.0" dy="28.46px">Judges remain unaware</tspan>
        <tspan x="-204.0" dy="29.90px">of the correct target</tspan>
        <tspan x="-204.0" dy="29.90px">identity</tspan>
      </text>
      <rect id="ITEM_1_BODY_FRAME" x="-204" y="-32" width="320" height="128" fill="none"/>
      <circle id="ITEM_1_PAD" cx="176" cy="-16" r="44" fill="var(--icon-pad-bg)" opacity="0.96" fill-opacity="0.9" stroke-width="2" stroke="var(--primary-text)"/>
      <circle id="ITEM_1_PAD_INNER" cx="176" cy="-16" r="34.32" fill="var(--accent-4)" fill-opacity="0.22"/>
      <circle cx="176" cy="-16" r="35" fill="none" stroke="var(--accent-1)" stroke-width="2.5" stroke-dasharray="6 4"/>
      <g id="ITEM_1_ICON" transform="translate(141, -51)" data-icon-size="70" stroke-dasharray="6 4">
        <g transform="translate(-4.298245614035088,-4.298245614035088) scale(0.15350877192982457)" vector-effect="non-scaling-stroke" fill="#f1f5f9" fill-opacity="1.0" stroke="none">
          <path fill="#f1f5f9" d="M295.568 31.755c-88.873 1.013-164.237 83.15-146.14 154.222c3.112 1.68 6.114 3.713 8.976 6.012c94.364-20.635 186.207-37.25 274.717-69.38c-4.396-11.362-8.926-26.62-15.104-32.857c-38.564-42.043-81.91-58.46-122.448-57.998zm162.787 100.527c-92.984 36.365-188.555 54.132-285.513 75.08c3 4.306 5.436 8.95 6.91 13.865c16.698.56 33.29.95 49.81 1.188c2.315-11.524 9.915-22.267 22.616-27.496l.338-.14l.347-.11a34.9 34.9 0 0 1 11.944-1.66c3.87.14 7.57.94 10.93 2.268c6.725 2.66 12.12 7.126 16.605 12.01c4.4 4.79 8.038 10.1 11.054 15.06c56.644-.994 112.656-4.228 168.79-10.304c-.018-3.805-.042-7.543-.096-11.22c-16.977-1.565-36.94-.35-64.217 7.667c22.82-11.948 39.826-19.518 60.78-19.31q1.544.014 3.122.086c-.45-10.747-1.432-20.984-3.654-30.824c-33.557 19.84-62.436 23.53-105.98 26.362c50.238-10.525 79.007-24.07 102.546-38.356a94 94 0 0 0-6.33-14.166zM132.56 199.17c-.682-.004-1.15.09-1.45.194c-4.756 2.414-9.748 9.214-12.018 17.453c-2.215 8.037-1.57 16.664.984 21.662c4.615 4.572 14.302 6.43 24.166 4.493c9.68-1.9 17.22-7.725 18.862-10.728c.035-5.966-4.99-16.103-12.74-23.406c-4.08-3.848-8.656-6.877-12.417-8.417c-1.88-.77-3.444-1.11-4.63-1.217a9 9 0 0 0-.756-.037zm131.753 11.76c-1.675-.076-3.475.16-5.56.786c-8.19 3.47-11.016 8.43-11.85 16.082c-.843 7.75 1.63 18.15 6.663 27.836s12.528 18.6 20.133 23.953s14.49 6.963 20.238 5.017l5.77 17.05c-12.697 4.3-25.788.1-36.37-7.348c-10.582-7.45-19.485-18.33-25.744-30.372c-3.893-7.49-6.8-15.45-8.108-23.474c-16.447-.24-32.96-.625-49.57-1.178c-2.164 5.224-5.78 9.34-10.246 12.565c5.82 11.84 12.81 22.992 21.11 33.396l2.597 3.252l-.795 4.084c-6.046 31.008-13.87 62.623-36.97 82.58c31.778 52.62 70.812 94.726 150.777 102.636c7.516-26.908 14.15-57.853 60.483-89.71l2.422-1.663l2.937.084c40.79 1.18 61.765-5.75 71.61-18.506c4.322-5.6 7.014-13.152 8.17-22.847l-39.04-.797l.366-17.996l39.19.8c-.368-8.815-1.513-18.807-3.42-30.08l-1.745-10.327l36.203-.586c-1.14-6.856-3.99-16.375-8.29-25.238c-6.218-12.83-15.555-24.903-19.124-27.382l-2.123-1.477c-50.237 4.848-100.406 7.483-151.02 8.347c-7.65 3.924-5.706 2.888-7.813 4.068c-4.162-7.43-9.574-17.904-16.11-25.02c-3.27-3.56-6.693-6.154-9.968-7.45c-1.584-.625-3.133-1.01-4.807-1.086zm-157.125 40.21c-6.954 14.03-14.456 30.194-22.5 46.296c-9.06 18.146-18.786 36.2-29.49 51.268c-8.14 11.457-16.796 21.348-26.764 27.975c9.864 13.877 17.987 25.48 24.654 35.674c4.344-12.038 9.388-24.587 14.734-37.382c11.19-26.778 23.637-54.487 33.354-79.553c5.43-14.012 9.954-27.268 12.98-38.853a32.6 32.6 0 0 1-6.97-5.428zm38.093 9.92c-4.485.71-9.156.97-13.766.61c-3.28 12.524-8.04 26.025-13.555 40.255c-9.972 25.724-22.472 53.52-33.53 79.986c-11.06 26.467-20.645 51.69-24.836 71.397c-2.096 9.855-2.788 18.303-2.033 24.456c.114.927.3 1.68.463 2.492a52 52 0 0 1 10.29-5.897c10.15-4.394 22.763-7.508 35.332-9.756c12.568-2.247 24.964-3.555 34.462-3.857c.97-.03 1.77-.006 2.674-.018c-10.392-58.63-2.174-142.745 4.5-199.666z" vector-effect="non-scaling-stroke" stroke="none"/>
        </g>
      </g>
    </g>
    <g transform="translate(960, 384)">
      <rect id="ITEM_2_BG" x="-250" y="-100" width="500" height="200" rx="30" fill="var(--panel)" fill-opacity="0.96" stroke="var(--accent-2)" stroke-width="3" filter="url(#svg1d9d0acc-shadow)"/>
      <rect x="-198" y="-70" width="396" height="12" rx="6" fill="var(--accent-2)" fill-opacity="0.18"/>
      <circle cx="0" cy="-12" r="76" fill="none" stroke="var(--accent-2)" stroke-width="2.5" stroke-opacity="0.14"/>
      <text id="ITEM_2_HEAD" x="-204.0" y="-72.0" text-anchor="start" font-weight="700" font-size="28" fill="var(--accent-5)" data-bg-id="ITEM_2_BG" fill-opacity="1.0" stroke="none" style="font-size: 30px; font-family: Inter, Segoe UI, Kalam, Roboto, Helvetica, Arial, sans-serif; font-weight: 700; letter-spacing:-0.4px;" data-final-font-size="30">
        <tspan x="-204.0" dy="27.25px">Predefined Pools</tspan>
      </text>
      <rect id="ITEM_2_HEAD_FRAME" x="-204" y="-72" width="310" height="38" fill="none"/>
      <text id="ITEM_2_BODY" x="-204.0" y="-32.0" text-anchor="start" font-size="19" fill="var(--primary-text)" data-bg-id="ITEM_2_BG" style="font-size: 26px; font-family: Inter, Segoe UI, Kalam, Roboto, Helvetica, Arial, sans-serif; font-weight: 400;" data-final-font-size="26">
        <tspan x="-204.0" dy="28.46px">Target options are</tspan>
        <tspan x="-204.0" dy="29.90px">established before data</tspan>
        <tspan x="-204.0" dy="29.90px">collection begins</tspan>
      </text>
      <rect id="ITEM_2_BODY_FRAME" x="-204" y="-32" width="320" height="128" fill="none"/>
      <circle id="ITEM_2_PAD" cx="176" cy="-12" r="45" fill="var(--icon-pad-bg)" opacity="0.96" fill-opacity="0.9" stroke-width="2" stroke="var(--primary-text)"/>
      <circle id="ITEM_2_PAD_INNER" cx="176" cy="-12" r="35.10" fill="var(--accent-5)" fill-opacity="0.22"/>
      <circle cx="176" cy="-12" r="36" fill="none" stroke="var(--accent-2)" stroke-width="2.5" stroke-dasharray="6 4"/>
      <g id="ITEM_2_ICON" transform="translate(140, -48)" data-icon-size="72" stroke-dasharray="6 4">
        <g transform="translate(-3.050847457627119,-7.932203389830512) scale(3.2542372881355934)" vector-effect="non-scaling-stroke" fill="#f1f5f9" fill-opacity="1.0" stroke="none">
          <path fill="#f1f5f9" d="M9 6v5H7V7H5v4H3V9H1v12h2v-2h2v2h2v-2h2v2h2v-2h2v2h2v-2h2v2h2v-2h2v2h2V9h-2v2h-2V7h-2v4h-2V6h-2v5h-2V6zm-6 7h2v4H3zm4 0h2v4H7zm4 0h2v4h-2zm4 0h2v4h-2zm4 0h2v4h-2z" vector-effect="non-scaling-stroke" stroke="none"/>
        </g>
      </g>
    </g>
    <g transform="translate(1570, 384)">
      <rect id="ITEM_3_BG" x="-250" y="-110" width="500" height="220" rx="30" fill="var(--panel)" fill-opacity="0.95" stroke="var(--accent-3)" stroke-width="3" filter="url(#svg1d9d0acc-shadow)"/>
      <rect x="-250" y="-110" width="500" height="220" rx="18" fill="url(#svg1d9d0acc-universal-surface-sheen)" opacity="0.84"/>
      <rect x="-220" y="-82" width="16" height="164" rx="8" fill="var(--accent-3)" fill-opacity="0.22"/>
      <circle cx="-176" cy="-16" r="72" fill="none" stroke="var(--accent-3)" stroke-width="2.5" stroke-opacity="0.14"/>
      <text id="ITEM_3_HEAD" x="204.0" y="-82.0" text-anchor="end" font-weight="700" font-size="28" fill="var(--accent-6)" data-bg-id="ITEM_3_BG" fill-opacity="1.0" stroke="none" style="font-size: 30px; font-family: Inter, Segoe UI, Kalam, Roboto, Helvetica, Arial, sans-serif; font-weight: 700; letter-spacing:-0.4px;" data-final-font-size="30">
        <tspan x="204.0" dy="27.25px">Multiple Evaluators</tspan>
      </text>
      <rect id="ITEM_3_HEAD_FRAME" x="-106" y="-82" width="310" height="38" fill="none"/>
      <text id="ITEM_3_BODY" x="204.0" y="-32.0" text-anchor="end" font-size="19" fill="var(--primary-text)" data-bg-id="ITEM_3_BG" style="font-size: 26px; font-family: Inter, Segoe UI, Kalam, Roboto, Helvetica, Arial, sans-serif; font-weight: 400;" data-final-font-size="26">
        <tspan x="204.0" dy="28.46px">Independent judges</tspan>
        <tspan x="204.0" dy="29.90px">provide cross-</tspan>
        <tspan x="204.0" dy="29.90px">verification of results</tspan>
      </text>
      <rect id="ITEM_3_BODY_FRAME" x="-116" y="-32" width="320" height="128" fill="none"/>
      <circle id="ITEM_3_PAD" cx="-176" cy="-16" r="44" fill="var(--icon-pad-bg)" opacity="0.96" fill-opacity="0.9" stroke-width="2" stroke="var(--primary-text)"/>
      <circle id="ITEM_3_PAD_INNER" cx="-176" cy="-16" r="34.32" fill="var(--accent-6)" fill-opacity="0.22"/>
      <circle cx="-176" cy="-16" r="35" fill="none" stroke="var(--accent-3)" stroke-width="2.5" stroke-dasharray="6 4"/>
      <g id="ITEM_3_ICON" transform="translate(-211, -51)" data-icon-size="70" stroke-dasharray="6 4">
        <g transform="translate(-6.481481481481481,-6.481481481481481) scale(3.45679012345679)" vector-effect="non-scaling-stroke" fill="#f1f5f9" fill-opacity="1.0" stroke="none">
          <path fill="#f1f5f9" d="M3.69 9.12a.88.88 0 0 0-.65-.28c-.41 0-.72.19-.92.58s-.15.76.17 1.11q1.77 1.59 2.25 2.25c.41.56.61 1.38.61 2.44c0 1.31.5 2.28 1.5 2.95c.56.44 1.17.77 1.85.99v-3.89c0-.94-.33-1.72-.96-2.35m8.92.05c-.62.62-.96 1.39-.96 2.3v3.93c.96-.34 1.76-.87 2.42-1.57c.65-.7.98-1.47.98-2.41c0-1.13.19-1.94.57-2.44c.09-.16.26-.36.53-.61c.23-.25.47-.49.71-.71c.23-.21.46-.43.68-.65l.33-.28a.9.9 0 0 0 .28-.66c0-.28-.09-.53-.28-.73s-.42-.3-.72-.3s-.5.09-.69.28M12 20c.69 0 1.36-.09 2-.28v-3.57c0-.59-.18-1.05-.59-1.49Q12.795 14 12 14c-.53 0-1 .2-1.38.61c-.4.39-.62.85-.62 1.45v3.66c.64.19 1.31.28 2 .28M9 8.5c0 .83-.67 1.5-1.5 1.5S6 9.33 6 8.5S6.67 7 7.5 7S9 7.67 9 8.5m9 0c0 .83-.67 1.5-1.5 1.5S15 9.33 15 8.5S15.67 7 16.5 7s1.5.67 1.5 1.5m-4.5-3c0 .83-.67 1.5-1.5 1.5s-1.5-.67-1.5-1.5S11.17 4 12 4s1.5.67 1.5 1.5m0 5.5c0 .83-.67 1.5-1.5 1.5s-1.5-.67-1.5-1.5s.67-1.5 1.5-1.5s1.5.67 1.5 1.5" vector-effect="non-scaling-stroke" stroke="none"/>
        </g>
      </g>
    </g>
    <g transform="translate(350, 816)">
      <rect id="ITEM_4_BG" x="-250" y="-110" width="500" height="220" rx="30" fill="var(--panel)" fill-opacity="0.95" stroke="var(--accent-4)" stroke-width="3" filter="url(#svg1d9d0acc-shadow)"/>
      <rect x="-250" y="-110" width="500" height="220" rx="18" fill="url(#svg1d9d0acc-universal-surface-sheen)" opacity="0.84"/>
      <rect x="204" y="-82" width="16" height="164" rx="8" fill="var(--accent-4)" fill-opacity="0.22"/>
      <circle cx="176" cy="-16" r="72" fill="none" stroke="var(--accent-4)" stroke-width="2.5" stroke-opacity="0.14"/>
      <text id="ITEM_4_HEAD" x="-204.0" y="-82.0" text-anchor="start" font-weight="700" font-size="28" fill="var(--accent-1)" data-bg-id="ITEM_4_BG" fill-opacity="1.0" stroke="none" style="font-size: 30px; font-family: Inter, Segoe UI, Kalam, Roboto, Helvetica, Arial, sans-serif; font-weight: 700; letter-spacing:-0.4px;" data-final-font-size="30">
        <tspan x="-204.0" dy="27.25px">Agreement Metrics</tspan>
      </text>
      <rect id="ITEM_4_HEAD_FRAME" x="-204" y="-82" width="310" height="38" fill="none"/>
      <text id="ITEM_4_BODY" x="-204.0" y="-32.0" text-anchor="start" font-size="19" fill="var(--primary-text)" data-bg-id="ITEM_4_BG" style="font-size: 26px; font-family: Inter, Segoe UI, Kalam, Roboto, Helvetica, Arial, sans-serif; font-weight: 400;" data-final-font-size="26">
        <tspan x="-204.0" dy="28.46px">Researchers measure</tspan>
        <tspan x="-204.0" dy="29.90px">consistency between</tspan>
        <tspan x="-204.0" dy="29.90px">different human judges</tspan>
      </text>
      <rect id="ITEM_4_BODY_FRAME" x="-204" y="-32" width="320" height="128" fill="none"/>
      <circle id="ITEM_4_PAD" cx="176" cy="-16" r="44" fill="var(--icon-pad-bg)" opacity="0.96" fill-opacity="0.9" stroke-width="2" stroke="var(--primary-text)"/>
      <circle id="ITEM_4_PAD_INNER" cx="176" cy="-16" r="34.32" fill="var(--accent-1)" fill-opacity="0.22"/>
      <circle cx="176" cy="-16" r="35" fill="none" stroke="var(--accent-4)" stroke-width="2.5" stroke-dasharray="6 4"/>
      <g id="ITEM_4_ICON" transform="translate(141, -51)" data-icon-size="70" stroke-dasharray="6 4">
        <g transform="translate(-6.481481481481481,-9.722222222222221) scale(3.45679012345679)" vector-effect="non-scaling-stroke" fill="#f1f5f9" fill-opacity="1.0" stroke="none">
          <path fill="#f1f5f9" d="M9 5a7 7 0 0 1 7 7h1v3h-1v4H9a7 7 0 0 1-7-7a7 7 0 0 1 7-7m0 3a4 4 0 0 0-4 4a4 4 0 0 0 4 4a4 4 0 0 0 4-4a4 4 0 0 0-4-4m8 9h5v4h-2v-2h-3z" vector-effect="non-scaling-stroke" stroke="none"/>
        </g>
      </g>
    </g>
    <g transform="translate(960, 816)">
      <rect id="ITEM_5_BG" x="-250" y="-100" width="500" height="200" rx="30" fill="var(--panel)" fill-opacity="0.96" stroke="var(--accent-5)" stroke-width="3" filter="url(#svg1d9d0acc-shadow)"/>
      <rect x="-198" y="-70" width="396" height="12" rx="6" fill="var(--accent-5)" fill-opacity="0.18"/>
      <circle cx="0" cy="-12" r="76" fill="none" stroke="var(--accent-5)" stroke-width="2.5" stroke-opacity="0.14"/>
      <text id="ITEM_5_HEAD" x="-204.0" y="-72.0" text-anchor="start" font-weight="700" font-size="28" fill="var(--accent-2)" data-bg-id="ITEM_5_BG" fill-opacity="1.0" stroke="none" style="font-size: 27px; font-family: Inter, Segoe UI, Kalam, Roboto, Helvetica, Arial, sans-serif; font-weight: 700; letter-spacing:-0.4px;" data-final-font-size="27">
        <tspan x="-204.0" dy="25.08px">Standardized Procedures</tspan>
      </text>
      <rect id="ITEM_5_HEAD_FRAME" x="-204" y="-72" width="310" height="38" fill="none"/>
      <text id="ITEM_5_BODY" x="-204.0" y="-32.0" text-anchor="start" font-size="19" fill="var(--primary-text)" data-bg-id="ITEM_5_BG" style="font-size: 26px; font-family: Inter, Segoe UI, Kalam, Roboto, Helvetica, Arial, sans-serif; font-weight: 400;" data-final-font-size="26">
        <tspan x="-204.0" dy="28.46px">Scoring rules are fixed</tspan>
        <tspan x="-204.0" dy="29.90px">before viewing</tspan>
        <tspan x="-204.0" dy="29.90px">sessions start</tspan>
      </text>
      <rect id="ITEM_5_BODY_FRAME" x="-204" y="-32" width="320" height="128" fill="none"/>
      <circle id="ITEM_5_PAD" cx="176" cy="-12" r="45" fill="var(--icon-pad-bg)" opacity="0.96" fill-opacity="0.9" stroke-width="2" stroke="var(--primary-text)"/>
      <circle id="ITEM_5_PAD_INNER" cx="176" cy="-12" r="35.10" fill="var(--accent-2)" fill-opacity="0.22"/>
      <circle cx="176" cy="-12" r="36" fill="none" stroke="var(--accent-5)" stroke-width="2.5" stroke-dasharray="6 4"/>
      <g id="ITEM_5_ICON" transform="translate(140, -48)" data-icon-size="72" stroke-dasharray="6 4">
        <g transform="translate(-3.0508474576271194,-3.050847457627119) scale(3.2542372881355934)" vector-effect="non-scaling-stroke" stroke-width="2.58" stroke-linecap="round" stroke-linejoin="round" stroke-opacity="1.0">
          <path d="M20 13c0 5-3.5 7.5-7.66 8.95a1 1 0 0 1-.67-.01C7.5 20.5 4 18 4 13V6a1 1 0 0 1 1-1c2 0 4.5-1.2 6.24-2.72a1.17 1.17 0 0 1 1.52 0C14.51 3.81 17 5 19 5a1 1 0 0 1 1 1z" vector-effect="non-scaling-stroke" fill="none" stroke="#f1f5f9"/>
          <path d="M12 8v4" vector-effect="non-scaling-stroke" fill="none" stroke="#f1f5f9"/>
          <path d="M12 16h.01" vector-effect="non-scaling-stroke" fill="none" stroke="#f1f5f9"/>
        </g>
      </g>
    </g>
    <g transform="translate(1570, 816)">
      <rect id="ITEM_6_BG" x="-250" y="-110" width="500" height="220" rx="30" fill="var(--panel)" fill-opacity="0.95" stroke="var(--accent-6)" stroke-width="3" filter="url(#svg1d9d0acc-shadow)"/>
      <rect x="-250" y="-110" width="500" height="220" rx="18" fill="url(#svg1d9d0acc-universal-surface-sheen)" opacity="0.84"/>
      <rect x="-220" y="-82" width="16" height="164" rx="8" fill="var(--accent-6)" fill-opacity="0.22"/>
      <circle cx="-176" cy="-16" r="72" fill="none" stroke="var(--accent-6)" stroke-width="2.5" stroke-opacity="0.14"/>
      <text id="ITEM_6_HEAD" x="204.0" y="-82.0" text-anchor="end" font-weight="700" font-size="28" fill="var(--accent-3)" data-bg-id="ITEM_6_BG" fill-opacity="1.0" stroke="none" style="font-size: 30px; font-family: Inter, Segoe UI, Kalam, Roboto, Helvetica, Arial, sans-serif; font-weight: 700; letter-spacing:-0.4px;" data-final-font-size="30">
        <tspan x="204.0" dy="27.25px">Full Session Analysis</tspan>
      </text>
      <rect id="ITEM_6_HEAD_FRAME" x="-106" y="-82" width="310" height="38" fill="none"/>
      <text id="ITEM_6_BODY" x="204.0" y="-32.0" text-anchor="end" font-size="19" fill="var(--primary-text)" data-bg-id="ITEM_6_BG" style="font-size: 26px; font-family: Inter, Segoe UI, Kalam, Roboto, Helvetica, Arial, sans-serif; font-weight: 400;" data-final-font-size="26">
        <tspan x="204.0" dy="28.46px">All data points are</tspan>
        <tspan x="204.0" dy="29.90px">analyzed instead of</tspan>
        <tspan x="204.0" dy="29.90px">cherry-picking</tspan>
      </text>
      <rect id="ITEM_6_BODY_FRAME" x="-116" y="-32" width="320" height="128" fill="none"/>
      <circle id="ITEM_6_PAD" cx="-176" cy="-16" r="44" fill="var(--icon-pad-bg)" opacity="0.96" fill-opacity="0.9" stroke-width="2" stroke="var(--primary-text)"/>
      <circle id="ITEM_6_PAD_INNER" cx="-176" cy="-16" r="34.32" fill="var(--accent-3)" fill-opacity="0.22"/>
      <circle cx="-176" cy="-16" r="35" fill="none" stroke="var(--accent-6)" stroke-width="2.5" stroke-dasharray="6 4"/>
      <g id="ITEM_6_ICON" transform="translate(-211, -51)" data-icon-size="70" stroke-dasharray="6 4">
        <g transform="translate(-5.0,-5.3125) scale(2.5)">
          <path d="M4.71839 18.0233C5.11525 17.458 5.8952 17.3215 6.46045 17.7184L18.5318 26.1936L17.0946 28.2406L5.02328 19.7653C4.45803 19.3685 4.32152 18.5885 4.71839 18.0233Z" fill="#5092FF"/>
          <path d="M18.5013 2.80347C18.8302 2.3598 19.4615 2.25982 19.9114 2.58017L21.5841 3.77124C22.034 4.09158 22.1321 4.71094 21.8032 5.15461L13.1102 16.8809C12.4436 17.7801 11.1641 17.9827 10.2523 17.3335C9.34053 16.6842 9.14176 15.429 9.80835 14.5298L18.5013 2.80347Z" fill="#636363"/>
          <path d="M18.0472 3.66594C16.8384 3.31432 15.3804 3.86071 14.5971 4.91739L11.7749 8.7243L11.9999 10.0001L10.6024 10.306L10.3989 10.5805C9.07399 12.3677 9.47824 14.8692 11.3018 16.1677C13.1254 17.4662 15.6778 17.07 17.0027 15.2828L17.1623 15.0675L16.9999 13.5001H18.3242L18.4883 13.2787C21.992 13.9302 23.8684 16.851 23.963 19.8545C24.0149 21.5041 23.5209 23.1307 22.4806 24.3899C21.4537 25.6329 19.8112 26.6185 17.3793 26.8486C16.5451 26.9276 15.9304 27.6956 16.0062 28.564C16.082 29.4325 16.8197 30.0725 17.6539 29.9935C20.7829 29.6974 23.1847 28.3804 24.7802 26.4491C26.3624 24.5339 27.069 22.1145 26.9946 19.751C26.8719 15.8564 24.6058 11.9837 20.5048 10.5586L21.2008 9.61967C21.9842 8.56299 22.0639 7.03517 21.3491 6.01708L18.0472 3.66594Z" fill="#BEBEBE"/>
          <path d="M2 29.2C2 27.4327 3.43269 26 5.2 26H26.8C28.5673 26 30 27.4327 30 29.2C30 29.6418 29.6418 30 29.2 30H2.8C2.35817 30 2 29.6418 2 29.2Z" fill="#9B9B9B"/>
          <path d="M11.7757 8.70947L18.3343 13.4746L17.1588 15.0927L10.6001 10.3275L11.7757 8.70947Z" fill="#D3D3D3"/>
        </g>
      </g>
    </g>
  </g>
</svg>
