<?xml version='1.0' encoding='utf-8'?>
<svg xmlns="http://www.w3.org/2000/svg" width="1920" height="1080" viewBox="0 0 1920 1080" data-theme="light">
  <style>
        @font-face {
            font-family: 'Inter';
            src: url('assets/fonts/Inter-Regular.ttf') format('truetype');
            font-weight: 400;
            font-style: normal;
            font-display: swap;
        }
        @font-face {
            font-family: 'Inter';
            src: url('assets/fonts/Inter-Bold.ttf') format('truetype');
            font-weight: 600;
            font-style: normal;
            font-display: swap;
        }
        @font-face {
            font-family: 'Inter';
            src: url('assets/fonts/Inter-Bold.ttf') format('truetype');
            font-weight: 800;
            font-style: normal;
            font-display: swap;
        }
        
:root {
    --background: #f8fafc;
    --panel: #ffffff;
    --primary-text: #0f172a;
    --muted-text: #64748b;
    --inverse-text: #ffffff;
    --border: #e2e8f0;
    --shadow-color: #000000;
    --icon-pad-bg: #1e293b;
    --art-glow: #0891b2;
    --art-glow-opacity: 0.10;
    --art-sheen: #ffffff;
    --art-sheen-opacity: 0.34;
    --art-shadow: #0f172a;
    --art-shadow-opacity: 0.14;
    --art-muted-line: #94a3b8;
    --art-panel-tint: #f1f5f9;
    --font-family: 'Inter', 'Segoe UI', 'Kalam', Roboto, Helvetica, Arial, sans-serif;
    --radius-xl: 16px;
    --font-family-headline: 'Inter', 'Segoe UI', 'Kalam', Roboto, Helvetica, Arial, sans-serif;
    --font-family-body: 'Inter', 'Segoe UI', 'Kalam', Roboto, Helvetica, Arial, sans-serif;
    --font-heading: 'Inter', 'Segoe UI', 'Kalam', Roboto, Helvetica, Arial, sans-serif;
    --font-body: 'Inter', 'Segoe UI', 'Kalam', Roboto, Helvetica, Arial, sans-serif;
    --font-size-h1: 56px;
    --font-size-h2: 40px;
    --font-size-h3: 28px;
    --font-size-body: 24px;
    --font-size-caption: 18px;
    --secondary-text: var(--muted-text);
    --panel-border: var(--border);
    --font-weight-normal: 400;
    --font-weight-medium: 500;
    --font-weight-semibold: 600;
    --font-weight-bold: 700;
    --spacing-gutter-pct: 0.07;
    --spacing-top-pct: 0.15;
    --spacing-bottom-pct: 0.07;
    --spacing-title-y-pct: 0.055;
    --accent-1: #d97706;
    --accent-2: #ea580c;
    --accent-3: #dc2626;
    --accent-4: #65a30d;
    --accent-5: #16a34a;
    --accent-6: #92400e;
}
:root[data-theme="dark"] {
    --background: #0f172a;
    --panel: #1e293b;
    --primary-text: #f1f5f9;
    --muted-text: #94a3b8;
    --inverse-text: #0f172a;
    --border: #334155;
    --shadow-color: #000000;
    --icon-pad-bg: #1e293b;
    --art-glow: #7dd3fc;
    --art-glow-opacity: 0.18;
    --art-sheen: #ffffff;
    --art-sheen-opacity: 0.18;
    --art-shadow: #000000;
    --art-shadow-opacity: 0.28;
    --art-muted-line: #64748b;
    --art-panel-tint: #1e293b;
    --accent-1: #fbbf24;
    --accent-2: #fb923c;
    --accent-3: #f87171;
    --accent-4: #a3e635;
    --accent-5: #4ade80;
    --accent-6: #d4a574;
}
:root[data-theme="light"] {
    --background: #f8fafc;
    --panel: #ffffff;
    --primary-text: #0f172a;
    --muted-text: #64748b;
    --inverse-text: #ffffff;
    --border: #e2e8f0;
    --shadow-color: #000000;
    --icon-pad-bg: #1e293b;
    --art-glow: #0891b2;
    --art-glow-opacity: 0.10;
    --art-sheen: #ffffff;
    --art-sheen-opacity: 0.34;
    --art-shadow: #0f172a;
    --art-shadow-opacity: 0.14;
    --art-muted-line: #94a3b8;
    --art-panel-tint: #f1f5f9;
    --accent-1: #d97706;
    --accent-2: #ea580c;
    --accent-3: #dc2626;
    --accent-4: #65a30d;
    --accent-5: #16a34a;
    --accent-6: #92400e;
}</style>
  <rect x="0" y="0" width="1.92E+3" height="1.08E+3" fill="#252a34" stroke="none" id="programmatic_background"/>
  <line id="HEADER_DECOR" x1="960.0" x2="1080.0" y1="95.0" y2="95.0" stroke="var(--accent-1)" stroke-width="6" stroke-linecap="round"/>
  <defs>
    <pattern id="svgb1004071-napkin-hatch" patternUnits="userSpaceOnUse" width="12" height="12">
      <path d="M -3 12 L 12 -3 M 0 15 L 15 0" fill="none" stroke="var(--primary-text)" stroke-width="1" stroke-opacity="0.05"/>
    </pattern>
    <filter id="svgb1004071-shadow" x="-30%" y="-30%" width="160%" height="160%">
      <feDropShadow dx="0" dy="2" stdDeviation="3" flood-color="#000000" flood-opacity="0.08"/>
      <feDropShadow dx="0" dy="6" stdDeviation="10" flood-color="#000000" flood-opacity="0.12"/>
    </filter>
    <radialGradient id="svgb1004071-universal-edge-vignette" cx="50%" cy="50%" r="72%">
      <stop offset="0%" stop-color="var(--background)" stop-opacity="0"/>
      <stop offset="72%" stop-color="var(--background)" stop-opacity="0.12"/>
      <stop offset="100%" stop-color="var(--primary-text)" stop-opacity="0.08"/>
    </radialGradient>
    <linearGradient id="svgb1004071-universal-surface-sheen" x1="0%" y1="0%" x2="100%" y2="100%">
      <stop offset="0%" stop-color="var(--art-sheen)" stop-opacity="var(--art-sheen-opacity)"/>
      <stop offset="46%" stop-color="var(--art-sheen)" stop-opacity="0.035"/>
      <stop offset="100%" stop-color="var(--art-panel-tint)" stop-opacity="0.14"/>
    </linearGradient>
    <radialGradient id="svgb1004071-universal-icon-aura" cx="50%" cy="42%" r="64%">
      <stop offset="0%" stop-color="var(--art-glow)" stop-opacity="var(--art-glow-opacity)"/>
      <stop offset="100%" stop-color="var(--background)" stop-opacity="0"/>
    </radialGradient>
    <radialGradient id="svgb1004071-venn-center-glow" cx="50%" cy="50%" r="60%">
      <stop offset="0%" stop-color="var(--art-glow)" stop-opacity="var(--art-glow-opacity)"/>
      <stop offset="100%" stop-color="var(--background)" stop-opacity="0"/>
    </radialGradient>
    <linearGradient id="svgb1004071-venn-label-sheen" x1="0%" y1="0%" x2="100%" y2="100%">
      <stop offset="0%" stop-color="var(--inverse-text)" stop-opacity="0.14"/>
      <stop offset="100%" stop-color="var(--background)" stop-opacity="0.12"/>
    </linearGradient>
    <filter id="svgb1004071-text-glow" x="-20%" y="-20%" width="140%" height="140%">
      <feDropShadow dx="0" dy="0" stdDeviation="2" flood-color="#000000" flood-opacity="0.4"/>
    </filter>
    <marker id="svgb1004071-arrowhead" markerWidth="10" markerHeight="7" refX="9" refY="3.5" orient="auto" markerUnits="strokeWidth">
      <polygon points="0 0, 10 3.5, 0 7" fill="var(--muted-text)" opacity="0.6"/>
    </marker>
  </defs>
  <rect width="100%" height="100%" fill="var(--background)" id="CANVAS_BG"/>
  <rect width="100%" height="100%" fill="url(#svgb1004071-napkin-hatch)"/>
  <rect id="UNIVERSAL_EDGE_VIGNETTE" width="100%" height="100%" fill="url(#svgb1004071-universal-edge-vignette)" opacity="0.62"/>
  <text id="TITLE" x="960.0" y="59" text-anchor="middle" font-weight="800" font-size="56" fill="#0f172a" style="font-size: 60px; font-family: Inter, Segoe UI, Kalam, Roboto, Helvetica, Arial, sans-serif; font-weight: 700; letter-spacing:-1.2px;" data-final-font-size="60">
    <tspan x="960.0" dy="68.00px">Remote Viewer 032 Ark Descriptions</tspan>
  </text>
  <rect id="TITLE_FRAME" x="134" y="35" width="1652" height="80" fill="none"/>
  <g id="DIAGRAM_MAIN" transform="translate(960, 620)">
    <!-- Circle backgrounds -->
    <circle id="ITEM_1_BG" cx="0" cy="-130" r="200" fill="var(--accent-1)" fill-opacity="1.0" stroke="var(--border)" stroke-width="2"/>
    <circle id="ITEM_2_BG" cx="130" cy="0" r="200" fill="var(--accent-2)" fill-opacity="1.0" stroke="var(--border)" stroke-width="2"/>
    <circle id="ITEM_3_BG" cx="0" cy="130" r="200" fill="var(--accent-3)" fill-opacity="1.0" stroke="var(--border)" stroke-width="2"/>
    <circle id="ITEM_4_BG" cx="-130" cy="0" r="200" fill="var(--accent-4)" fill-opacity="1.0" stroke="var(--border)" stroke-width="2"/>
    <!-- ITEM 1 - Top (y=-260 to be in non-overlap area) -->
    <circle id="ITEM_1_PAD" cx="0" cy="-260" r="50" fill="var(--icon-pad-bg)" stroke="var(--primary-text)" opacity="0.9" fill-opacity="0.9" stroke-width="2"/>
    <circle id="ITEM_1_PAD_INNER" cx="0" cy="-260" r="39.00" fill="var(--accent-1)" fill-opacity="0.22"/>
    <circle cx="0" cy="-260" r="40" fill="none" stroke="var(--accent-1)" stroke-width="3" stroke-dasharray="6 4"/>
    <g id="ITEM_1_ICON" transform="translate(-30, -290)" data-icon-size="60">
      <g transform="translate(-11.275000000000004,-12.25) scale(0.1625)" vector-effect="non-scaling-stroke" fill="#f1f5f9" fill-opacity="1.0" stroke="none">
        <path fill="#f1f5f9" d="M341.28 22.78L254 123.75l63.156-33.656l4.438-2.375l4.437 2.405l18.314 9.938l-3.063-77.282zM129.814 46.563l24.375 130.407l88.718-47.282l-113.094-83.125zM321.53 108.97L83.345 235.905L192.156 293.5l237.47-125.75zm42.75 44.686l25.595 13.03l-197.313 103.94l-66.875-35.688l25.344-13.407l41.532 22.19l171.72-90.064zm92.19 18.22l9.092 24.03l26.22-22.656l-35.313-1.375zm-15.783 11.155L199.47 310.78l-5.782 83.376L465.75 249.344zm-334.562 19.564L16.562 226.78l36.876 19.564l6.093-16.28l1.25-3.314l3.126-1.656l42.22-22.5zm-34.438 48.312l-28.812 77l131.844 70.156l6.155-89.375l-109.188-57.78zm335.344 50.875l-174.25 92.75l54.907 103.44L325.5 358.093l142.47 26.625l-60.94-82.94zm-300.717 81.064l-19.438 44.812L144 402.876l-37.688-20.032z" vector-effect="non-scaling-stroke" stroke="none"/>
      </g>
    </g>
    <rect id="ITEM_1_TEXT_BG" x="-208.0" y="-226.0" width="416.0" height="190.0" rx="16" fill="var(--panel)" fill-opacity="0.94" stroke="var(--primary-text)" stroke-opacity="0.12" stroke-width="1.5"/>
    <rect x="-208.0" y="-226.0" width="416.0" height="190.0" rx="16" fill="url(#svgb1004071-venn-label-sheen)" opacity="0.85"/>
    <text id="ITEM_1_HEAD" x="0.0" y="-210.0" text-anchor="middle" font-weight="bold" font-size="34" fill="var(--primary-text)" data-bg-id="ITEM_1_TEXT_BG" opacity="0.98" fill-opacity="1.0" style="font-size: 30px; font-family: Inter, Segoe UI, Kalam, Roboto, Helvetica, Arial, sans-serif; font-weight: 700; letter-spacing:-0.4px;" data-final-font-size="30">
      <tspan x="0.0" dy="31.25px">Material Composition</tspan>
    </text>
    <rect id="ITEM_1_HEAD_FRAME" x="-170" y="-210" width="340" height="46" fill="none"/>
    <text id="ITEM_1_BODY" x="0.0" y="-152.0" text-anchor="middle" font-size="20" fill="var(--primary-text)" data-bg-id="ITEM_1_TEXT_BG" style="font-size: 26px; font-family: Inter, Segoe UI, Kalam, Roboto, Helvetica, Arial, sans-serif; font-weight: 400;" data-final-font-size="26">
      <tspan x="0.0" dy="28.84px">Viewer perceived a container</tspan>
      <tspan x="0.0" dy="29.90px">made of wood, gold, and silver</tspan>
    </text>
    <rect id="ITEM_1_BODY_FRAME" x="-190" y="-152" width="380" height="100" fill="none"/>
    <!-- ITEM 2 - Right (x=260 to be in non-overlap area) -->
    <circle id="ITEM_2_PAD" cx="260" cy="0" r="50" fill="var(--icon-pad-bg)" stroke="var(--primary-text)" opacity="0.9" fill-opacity="0.9" stroke-width="2"/>
    <circle id="ITEM_2_PAD_INNER" cx="260" cy="0" r="39.00" fill="var(--accent-2)" fill-opacity="0.22"/>
    <circle cx="260" cy="0" r="40" fill="none" stroke="var(--accent-2)" stroke-width="3" stroke-dasharray="6 4"/>
    <g id="ITEM_2_ICON" transform="translate(230, -30)" data-icon-size="60">
      <g transform="translate(-10.585365853658539,-9.0) scale(3.3821138211382116)" vector-effect="non-scaling-stroke" fill="#f1f5f9" fill-opacity="1.0" stroke="none">
        <path fill="#f1f5f9" d="M12 0C8.96 0 6.21 1.23 4.22 3.22l1.41 1.41A8.95 8.95 0 0 1 12 2c2.5 0 4.74 1 6.36 2.64l1.41-1.41C17.79 1.23 15.04 0 12 0M7.05 6.05l1.41 1.41a5.02 5.02 0 0 1 7.08 0l1.41-1.41A6.98 6.98 0 0 0 12 4c-1.93 0-3.68.78-4.95 2.05M12 15a2 2 0 0 1-2-2a2 2 0 0 1 2-2a2 2 0 0 1 2 2a2 2 0 0 1-2 2m3-6H9a1 1 0 0 0-1 1v12a1 1 0 0 0 1 1h6a1 1 0 0 0 1-1V10a1 1 0 0 0-1-1" vector-effect="non-scaling-stroke" stroke="none"/>
      </g>
    </g>
    <rect id="ITEM_2_TEXT_BG" x="352.0" y="-66.0" width="416.0" height="202.0" rx="16" fill="var(--panel)" fill-opacity="0.94" stroke="var(--primary-text)" stroke-opacity="0.12" stroke-width="1.5"/>
    <rect x="352.0" y="-66.0" width="416.0" height="202.0" rx="16" fill="url(#svgb1004071-venn-label-sheen)" opacity="0.85"/>
    <text id="ITEM_2_HEAD" x="370.0" y="-50.0" text-anchor="start" font-weight="bold" font-size="36" fill="var(--primary-text)" data-bg-id="ITEM_2_TEXT_BG" opacity="0.98" fill-opacity="1.0" style="font-size: 25px; font-family: Inter, Segoe UI, Kalam, Roboto, Helvetica, Arial, sans-serif; font-weight: 700; letter-spacing:-0.4px;" data-final-font-size="25">
      <tspan x="370.0" dy="30.62px">Decorative Figures</tspan>
    </text>
    <rect id="ITEM_2_HEAD_FRAME" x="370" y="-50" width="220" height="50" fill="none"/>
    <text id="ITEM_2_BODY" x="370.0" y="0.0" text-anchor="start" font-size="20" fill="var(--primary-text)" data-bg-id="ITEM_2_TEXT_BG" style="font-size: 26px; font-family: Inter, Segoe UI, Kalam, Roboto, Helvetica, Arial, sans-serif; font-weight: 400;" data-final-font-size="26">
      <tspan x="370.0" dy="26.86px">Descriptions included winged</tspan>
      <tspan x="370.0" dy="29.90px">figures resembling</tspan>
      <tspan x="370.0" dy="29.90px">biblical cherubim</tspan>
    </text>
    <rect id="ITEM_2_BODY_FRAME" x="370" y="0" width="380" height="120" fill="none"/>
    <!-- ITEM 3 - Bottom (y=260 to be in non-overlap area) -->
    <circle id="ITEM_3_PAD" cx="0" cy="220" r="50" fill="var(--icon-pad-bg)" stroke="var(--primary-text)" opacity="0.9" fill-opacity="0.9" stroke-width="2"/>
    <circle id="ITEM_3_PAD_INNER" cx="0" cy="220" r="39.00" fill="var(--accent-3)" fill-opacity="0.22"/>
    <circle cx="0" cy="220" r="40" fill="none" stroke="var(--accent-3)" stroke-width="3" stroke-dasharray="6 4"/>
    <g id="ITEM_3_ICON" transform="translate(-30, 190)" data-icon-size="60">
      <g transform="translate(-11.6,-12.250000000000002) scale(0.1625)" vector-effect="non-scaling-stroke" fill="#f1f5f9" fill-opacity="1.0" stroke="none">
        <path fill="#f1f5f9" d="M346.951 24.582L299.193 72.34l-101.136-7.024l-40.97 80.737l68.688 25.35l37.153-19.936l8.511 15.861l-44.293 23.768l-79.7-29.416l-70.19 55.341l35.117 58.995l-.375.2l13.014 21.585l29.134 2.361l55.06-35.123l9.679 15.176l-60.16 38.377l-44.364-3.596l-18.23-30.234l-56.8 30.586l33.712 61.804l-33.713 40.735L18 444.177V494h170.62l-5.6-45.592a261 261 0 0 1-5.147-4.512c-4.186-3.761-5.89-5.444-8.027-7.484l-73.13 21.797l-21.339-20.484l12.467-12.985l13.777 13.225l73.068-21.78l3.784 3.667s4.24 4.09 9.216 8.636l37.797-37.248l8.133 79.54l6.3-93.444l10.364 28.387l6.281-45.112l3.14-3.091l-.29-.233l22.486-27.974l.465-.907l.188.096l11.453-14.248l14.03 11.277l-9.122 11.348l67.803 34.715l27.008-9.489l22.478 17.71l22.924-12.036l8.367 15.938l-33.262 17.46l-23.875-18.81l-24.964 8.772l-9.584-4.907l39.04 87.842L383.923 494H494v-28.512L462.713 478.2l-6.776-16.678L494 446.06V211.176l-23.438-26.463l-21.654-67.371l-33.547 32.666l-107.77-13.873l-28.019-29.096l12.967-12.486l23.629 24.539l92.867 11.953l31.442-30.615l-52.79-61.801zm27.53 177.74l34.177 41.428l28.863-6.56l-4.136-13.59l17.22-5.243l9.77 32.098l-58.543 13.307l-31.377-38.033l-33.086 19.853l-9.262-15.436z" vector-effect="non-scaling-stroke" stroke="none"/>
      </g>
    </g>
    <rect id="ITEM_3_TEXT_BG" x="-208.0" y="256.0" width="416.0" height="202.0" rx="16" fill="var(--panel)" fill-opacity="0.94" stroke="var(--primary-text)" stroke-opacity="0.12" stroke-width="1.5"/>
    <rect x="-208.0" y="256.0" width="416.0" height="202.0" rx="16" fill="url(#svgb1004071-venn-label-sheen)" opacity="0.85"/>
    <text id="ITEM_3_HEAD" x="0.0" y="272.0" text-anchor="middle" font-weight="bold" font-size="36" fill="var(--accent-3)" data-bg-id="ITEM_3_TEXT_BG" opacity="0.98" fill-opacity="1.0" style="font-size: 30px; font-family: Inter, Segoe UI, Kalam, Roboto, Helvetica, Arial, sans-serif; font-weight: 700; letter-spacing:-0.4px;" data-final-font-size="30">
      <tspan x="0.0" dy="32.25px">Hidden Location</tspan>
    </text>
    <rect id="ITEM_3_HEAD_FRAME" x="-140" y="272" width="280" height="48" fill="none"/>
    <text id="ITEM_3_BODY" x="0.0" y="322.0" text-anchor="middle" font-size="20" fill="var(--primary-text)" data-bg-id="ITEM_3_TEXT_BG" style="font-size: 26px; font-family: Inter, Segoe UI, Kalam, Roboto, Helvetica, Arial, sans-serif; font-weight: 400;" data-final-font-size="26">
      <tspan x="0.0" dy="26.86px">The object was reported</tspan>
      <tspan x="0.0" dy="29.90px">as hidden underground in the</tspan>
      <tspan x="0.0" dy="29.90px">Middle East</tspan>
    </text>
    <rect id="ITEM_3_BODY_FRAME" x="-190" y="322" width="380" height="120" fill="none"/>
    <!-- ITEM 4 - Left (x=-260 to be in non-overlap area) -->
    <circle id="ITEM_4_PAD" cx="-260" cy="0" r="50" fill="var(--icon-pad-bg)" stroke="var(--primary-text)" opacity="0.9" fill-opacity="0.9" stroke-width="2"/>
    <circle id="ITEM_4_PAD_INNER" cx="-260" cy="0" r="39.00" fill="var(--accent-4)" fill-opacity="0.22"/>
    <circle cx="-260" cy="0" r="40" fill="none" stroke="var(--accent-4)" stroke-width="3" stroke-dasharray="6 4"/>
    <g id="ITEM_4_ICON" transform="translate(-290, -30)" data-icon-size="60">
      <g transform="translate(-26.727272727272727,-26.727272727272727) scale(3.5454545454545454)" vector-effect="non-scaling-stroke" fill="#f1f5f9" fill-opacity="1.0" stroke="none">
        <path d="M15 5h2v4h-2z" fill="#f1f5f9" vector-effect="non-scaling-stroke" stroke="none"/>
        <path d="M15 11h2v4h-2z" fill="#f1f5f9" vector-effect="non-scaling-stroke" stroke="none"/>
        <path d="M15 17h2v4h-2z" fill="#f1f5f9" vector-effect="non-scaling-stroke" stroke="none"/>
        <path d="M15 23h2v4h-2z" fill="#f1f5f9" vector-effect="non-scaling-stroke" stroke="none"/>
      </g>
    </g>
    <rect id="ITEM_4_TEXT_BG" x="-768.0" y="-66.0" width="416.0" height="202.0" rx="16" fill="var(--panel)" fill-opacity="0.94" stroke="var(--primary-text)" stroke-opacity="0.12" stroke-width="1.5"/>
    <rect x="-768.0" y="-66.0" width="416.0" height="202.0" rx="16" fill="url(#svgb1004071-venn-label-sheen)" opacity="0.85"/>
    <text id="ITEM_4_HEAD" x="-370.0" y="-50.0" text-anchor="end" font-weight="bold" font-size="36" fill="var(--primary-text)" data-bg-id="ITEM_4_TEXT_BG" opacity="0.98" fill-opacity="1.0" style="font-size: 26px; font-family: Inter, Segoe UI, Kalam, Roboto, Helvetica, Arial, sans-serif; font-weight: 700; letter-spacing:-0.4px;" data-final-font-size="26">
      <tspan x="-370.0" dy="30.85px">Protective Forces</tspan>
    </text>
    <rect id="ITEM_4_HEAD_FRAME" x="-590" y="-50" width="220" height="50" fill="none"/>
    <text id="ITEM_4_BODY" x="-370.0" y="0.0" text-anchor="end" font-size="20" fill="var(--primary-text)" data-bg-id="ITEM_4_TEXT_BG" style="font-size: 26px; font-family: Inter, Segoe UI, Kalam, Roboto, Helvetica, Arial, sans-serif; font-weight: 400;" data-final-font-size="26">
      <tspan x="-370.0" dy="26.86px">Claims stated unauthorized</tspan>
      <tspan x="-370.0" dy="29.90px">opening would trigger</tspan>
      <tspan x="-370.0" dy="29.90px">destructive protective forces</tspan>
    </text>
    <rect id="ITEM_4_BODY_FRAME" x="-750" y="0" width="380" height="120" fill="none"/>
  </g>
</svg>
