<?xml version='1.0' encoding='utf-8'?>
<svg xmlns="http://www.w3.org/2000/svg" width="1920" height="1080" viewBox="0 0 1920 1080" data-theme="dark">
  <style>
        @font-face {
            font-family: 'Inter';
            src: url('assets/fonts/Inter-Regular.ttf') format('truetype');
            font-weight: 400;
            font-style: normal;
            font-display: swap;
        }
        @font-face {
            font-family: 'Inter';
            src: url('assets/fonts/Inter-Bold.ttf') format('truetype');
            font-weight: 600;
            font-style: normal;
            font-display: swap;
        }
        @font-face {
            font-family: 'Inter';
            src: url('assets/fonts/Inter-Bold.ttf') format('truetype');
            font-weight: 800;
            font-style: normal;
            font-display: swap;
        }
        
:root {
    --background: #0f172a;
    --panel: #1e293b;
    --primary-text: #f1f5f9;
    --muted-text: #94a3b8;
    --inverse-text: #0f172a;
    --border: #334155;
    --shadow-color: #000000;
    --icon-pad-bg: #1e293b;
    --art-glow: #7dd3fc;
    --art-glow-opacity: 0.18;
    --art-sheen: #ffffff;
    --art-sheen-opacity: 0.18;
    --art-shadow: #000000;
    --art-shadow-opacity: 0.28;
    --art-muted-line: #64748b;
    --art-panel-tint: #1e293b;
    --font-family: 'Inter', 'Segoe UI', 'Kalam', Roboto, Helvetica, Arial, sans-serif;
    --radius-xl: 16px;
    --font-family-headline: 'Inter', 'Segoe UI', 'Kalam', Roboto, Helvetica, Arial, sans-serif;
    --font-family-body: 'Inter', 'Segoe UI', 'Kalam', Roboto, Helvetica, Arial, sans-serif;
    --font-heading: 'Inter', 'Segoe UI', 'Kalam', Roboto, Helvetica, Arial, sans-serif;
    --font-body: 'Inter', 'Segoe UI', 'Kalam', Roboto, Helvetica, Arial, sans-serif;
    --font-size-h1: 56px;
    --font-size-h2: 40px;
    --font-size-h3: 28px;
    --font-size-body: 24px;
    --font-size-caption: 18px;
    --secondary-text: var(--muted-text);
    --panel-border: var(--border);
    --font-weight-normal: 400;
    --font-weight-medium: 500;
    --font-weight-semibold: 600;
    --font-weight-bold: 700;
    --spacing-gutter-pct: 0.07;
    --spacing-top-pct: 0.15;
    --spacing-bottom-pct: 0.07;
    --spacing-title-y-pct: 0.055;
    --accent-1: #93c5fd;
    --accent-2: #86efac;
    --accent-3: #fcd34d;
    --accent-4: #f9a8d4;
    --accent-5: #c4b5fd;
    --accent-6: #a5f3fc;
}
:root[data-theme="dark"] {
    --background: #0f172a;
    --panel: #1e293b;
    --primary-text: #f1f5f9;
    --muted-text: #94a3b8;
    --inverse-text: #0f172a;
    --border: #334155;
    --shadow-color: #000000;
    --icon-pad-bg: #1e293b;
    --art-glow: #7dd3fc;
    --art-glow-opacity: 0.18;
    --art-sheen: #ffffff;
    --art-sheen-opacity: 0.18;
    --art-shadow: #000000;
    --art-shadow-opacity: 0.28;
    --art-muted-line: #64748b;
    --art-panel-tint: #1e293b;
    --accent-1: #93c5fd;
    --accent-2: #86efac;
    --accent-3: #fcd34d;
    --accent-4: #f9a8d4;
    --accent-5: #c4b5fd;
    --accent-6: #a5f3fc;
}
:root[data-theme="light"] {
    --background: #f8fafc;
    --panel: #ffffff;
    --primary-text: #0f172a;
    --muted-text: #64748b;
    --inverse-text: #ffffff;
    --border: #e2e8f0;
    --shadow-color: #000000;
    --icon-pad-bg: #1e293b;
    --art-glow: #0891b2;
    --art-glow-opacity: 0.10;
    --art-sheen: #ffffff;
    --art-sheen-opacity: 0.34;
    --art-shadow: #0f172a;
    --art-shadow-opacity: 0.14;
    --art-muted-line: #94a3b8;
    --art-panel-tint: #f1f5f9;
    --accent-1: #3b82f6;
    --accent-2: #22c55e;
    --accent-3: #f59e0b;
    --accent-4: #ec4899;
    --accent-5: #8b5cf6;
    --accent-6: #06b6d4;
}</style>
  <rect x="0" y="0" width="1.92E+3" height="1.08E+3" fill="#252a34" stroke="none" id="programmatic_background"/>
  <line id="HEADER_DECOR" x1="960.0" x2="1080.0" y1="127.0" y2="127.0" stroke="var(--accent-1)" stroke-width="6" stroke-linecap="round"/>
  <defs>
    <pattern id="svg61e924b8-napkin-hatch" patternUnits="userSpaceOnUse" width="12" height="12">
      <path d="M -3 12 L 12 -3 M 0 15 L 15 0" fill="none" stroke="var(--primary-text)" stroke-width="1" stroke-opacity="0.05"/>
    </pattern>
    <filter id="svg61e924b8-shadow" x="-30%" y="-30%" width="160%" height="160%">
      <feDropShadow dx="0" dy="3" stdDeviation="6" flood-color="#000000" flood-opacity="0.10"/>
      <feDropShadow dx="0" dy="8" stdDeviation="12" flood-color="#000000" flood-opacity="0.16"/>
    </filter>
    <radialGradient id="svg61e924b8-universal-edge-vignette" cx="50%" cy="50%" r="72%">
      <stop offset="0%" stop-color="var(--background)" stop-opacity="0"/>
      <stop offset="72%" stop-color="var(--background)" stop-opacity="0.12"/>
      <stop offset="100%" stop-color="var(--primary-text)" stop-opacity="0.08"/>
    </radialGradient>
    <linearGradient id="svg61e924b8-universal-surface-sheen" x1="0%" y1="0%" x2="100%" y2="100%">
      <stop offset="0%" stop-color="var(--art-sheen)" stop-opacity="var(--art-sheen-opacity)"/>
      <stop offset="46%" stop-color="var(--art-sheen)" stop-opacity="0.035"/>
      <stop offset="100%" stop-color="var(--art-panel-tint)" stop-opacity="0.14"/>
    </linearGradient>
    <radialGradient id="svg61e924b8-universal-icon-aura" cx="50%" cy="42%" r="64%">
      <stop offset="0%" stop-color="var(--art-glow)" stop-opacity="var(--art-glow-opacity)"/>
      <stop offset="100%" stop-color="var(--background)" stop-opacity="0"/>
    </radialGradient>
    <filter id="svg61e924b8-text-glow" x="-20%" y="-20%" width="140%" height="140%">
      <feDropShadow dx="0" dy="0" stdDeviation="2" flood-color="#000000" flood-opacity="0.4"/>
    </filter>
    <marker id="svg61e924b8-arrowhead" markerWidth="10" markerHeight="7" refX="9" refY="3.5" orient="auto" markerUnits="strokeWidth">
      <polygon points="0 0, 10 3.5, 0 7" fill="var(--muted-text)" opacity="0.6"/>
    </marker>
  </defs>
  <rect width="100%" height="100%" fill="var(--background)" id="CANVAS_BG"/>
  <rect width="100%" height="100%" fill="url(#svg61e924b8-napkin-hatch)"/>
  <rect id="UNIVERSAL_EDGE_VIGNETTE" width="100%" height="100%" fill="url(#svg61e924b8-universal-edge-vignette)" opacity="0.62"/>
  <text id="TITLE" x="960.0" y="59" text-anchor="middle" font-size="60" font-weight="800" fill="#f1f5f9" style="font-size: 60px; font-family: Inter, Segoe UI, Kalam, Roboto, Helvetica, Arial, sans-serif; font-weight: 700; letter-spacing:-1.2px;" data-final-font-size="60">
    <tspan x="960.0" dy="68.00px">Cognitive Biases in Evidence Review</tspan>
  </text>
  <rect id="TITLE_FRAME" x="134" y="54" width="1652" height="100" fill="none"/>
  <rect x="150" y="150" width="1620" height="850" rx="40" fill="var(--panel)" fill-opacity="0.18" stroke="var(--muted-text)" stroke-width="2" opacity="0.90"/>
  <line x1="360" y1="212.0" x2="360" y2="938.0" stroke="var(--muted-text)" stroke-width="18" stroke-linecap="round" opacity="0.18"/>
  <line x1="360" y1="212.0" x2="360" y2="938.0" stroke="var(--border)" stroke-width="3" stroke-linecap="round" opacity="0.72"/>
  <g id="DIAGRAM_MAIN">
    <g filter="url(#svg61e924b8-shadow)">
      <line x1="404.0" y1="240.0" x2="420.0" y2="240.0" stroke="var(--accent-1)" stroke-width="5" opacity="0.76" stroke-linecap="round"/>
      <rect id="ITEM_1_BG" x="420.0" y="174.0" width="1085" height="152" rx="22" fill="var(--panel)" fill-opacity="0.97" stroke="var(--accent-1)" stroke-width="2.5"/>
      <rect x="420.0" y="174.0" width="1085" height="152" rx="16" fill="url(#svg61e924b8-universal-surface-sheen)" opacity="0.88"/>
      <rect x="420.0" y="174.0" width="14" height="132" rx="7" fill="var(--accent-1)" fill-opacity="0.90"/>
      <circle id="ITEM_1_PAD" cx="360" cy="240.0" r="46" fill="var(--icon-pad-bg)" opacity="0.95" fill-opacity="0.9" stroke-width="2" stroke="var(--primary-text)"/>
      <circle id="ITEM_1_PAD_INNER" cx="360" cy="240.0" r="35.88" fill="var(--accent-4)" fill-opacity="0.22"/>
      <circle cx="360" cy="240.0" r="38" fill="none" stroke="var(--accent-1)" stroke-width="3" stroke-dasharray="6 4"/>
      <g id="ITEM_1_ICON" transform="translate(324, 204.0)" data-icon-size="72" stroke-dasharray="6 4">
        <g transform="translate(-3.050847457627121,-3.050847457627119) scale(3.2542372881355934)" vector-effect="non-scaling-stroke" stroke-width="2.58" stroke-linecap="round" stroke-linejoin="round" stroke-opacity="1.0">
          <path d="M15 14c.2-1 .7-1.7 1.5-2.5 1-.9 1.5-2.2 1.5-3.5A6 6 0 0 0 6 8c0 1 .2 2.2 1.5 3.5.7.7 1.3 1.5 1.5 2.5" vector-effect="non-scaling-stroke" fill="none" stroke="#f1f5f9"/>
          <path d="M9 18h6" vector-effect="non-scaling-stroke" fill="none" stroke="#f1f5f9"/>
          <path d="M10 22h4" vector-effect="non-scaling-stroke" fill="none" stroke="#f1f5f9"/>
        </g>
      </g>
      <text id="ITEM_1_HEAD" x="500.0" y="192.0" text-anchor="start" font-weight="800" font-size="30" fill="var(--accent-4)" data-bg-id="ITEM_1_BG" fill-opacity="1.0" stroke="none" style="font-size: 30px; font-family: Inter, Segoe UI, Kalam, Roboto, Helvetica, Arial, sans-serif; font-weight: 700; letter-spacing:-0.4px;" data-final-font-size="30">
        <tspan x="500.0" dy="27.13px">Availability Heuristic</tspan>
      </text>
      <rect id="ITEM_1_HEAD_FRAME" x="500" y="192.0" width="760" height="32" fill="none"/>
      <text id="ITEM_1_BODY" x="500.0" y="230.0" text-anchor="start" font-size="24" fill="var(--primary-text)" data-bg-id="ITEM_1_BG" style="font-size: 26px; font-family: Inter, Segoe UI, Kalam, Roboto, Helvetica, Arial, sans-serif; font-weight: 400;" data-final-font-size="26">
        <tspan x="500.0" dy="31.81px">Brain mistakes vivid memories for high probability events</tspan>
      </text>
      <rect id="ITEM_1_BODY_FRAME" x="500" y="230.0" width="860" height="72" fill="none"/>
      <text x="1460" y="216.0" text-anchor="end" font-size="18" font-weight="800" fill="var(--accent-1)" opacity="0.70">01</text>
    </g>
    <g filter="url(#svg61e924b8-shadow)">
      <line x1="404.0" y1="407.5" x2="420.0" y2="407.5" stroke="var(--accent-2)" stroke-width="5" opacity="0.76" stroke-linecap="round"/>
      <rect id="ITEM_2_BG" x="420.0" y="341.5" width="1085" height="152" rx="22" fill="var(--panel)" fill-opacity="0.97" stroke="var(--accent-2)" stroke-width="2.5"/>
      <rect x="420.0" y="341.5" width="1085" height="152" rx="16" fill="url(#svg61e924b8-universal-surface-sheen)" opacity="0.88"/>
      <rect x="420.0" y="341.5" width="14" height="132" rx="7" fill="var(--accent-2)" fill-opacity="0.90"/>
      <circle id="ITEM_2_PAD" cx="360" cy="407.5" r="46" fill="var(--icon-pad-bg)" opacity="0.95" fill-opacity="0.9" stroke-width="2" stroke="var(--primary-text)"/>
      <circle id="ITEM_2_PAD_INNER" cx="360" cy="407.5" r="35.88" fill="var(--accent-5)" fill-opacity="0.22"/>
      <circle cx="360" cy="407.5" r="38" fill="none" stroke="var(--accent-2)" stroke-width="3" stroke-dasharray="6 4"/>
      <g id="ITEM_2_ICON" transform="translate(324, 371.5)" data-icon-size="72" stroke-dasharray="6 4">
        <g transform="translate(-4.421052631578947,-4.421052631578943) scale(0.15789473684210525)" vector-effect="non-scaling-stroke" fill="#f1f5f9" fill-opacity="1.0" stroke="none">
          <path fill="#f1f5f9" d="m318 123.645l-61.5 35.7l-61.76-35.7l61.76-35.7zm93.68 54.19l-61.76 35.7l61.76 35.7l61.5-35.7zm-294.39 80.64l61.76 35.7l61.5-35.7l-61.5-35.7zm139.52-80.57l-61.76 35.7l61.76 35.7l61.5-35.7zM31 298.365l62 35.69v-71l-62-35.65v71zm373-26l-62 35.69v70.94l62-35.66zm-225.11-139.4l-61.76 35.7l61.76 35.7l61.5-35.7zM109 343.305l62 35.69v-70.94l-62-35.69v71zm225.41-120.45l-61.76 35.7l61.76 35.7l61.5-35.7zM249 353.055l-62-35.7v71l62 35.7zm77-35.67l-61 35.67v70.94l61-35.66zm8.07-184.5l-61.76 35.7l61.76 35.7l61.5-35.7zm-232.6 44.95l-61.77 35.7l61.76 35.7l61.5-35.7zM481 227.565l-61 35.66v70.94l61-35.66zm-286.11 75.93l61.76 35.7l61.5-35.7l-61.5-35.7z" vector-effect="non-scaling-stroke" stroke="none"/>
        </g>
      </g>
      <text id="ITEM_2_HEAD" x="500.0" y="359.5" text-anchor="start" font-weight="800" font-size="30" fill="var(--accent-5)" data-bg-id="ITEM_2_BG" fill-opacity="1.0" stroke="none" style="font-size: 30px; font-family: Inter, Segoe UI, Kalam, Roboto, Helvetica, Arial, sans-serif; font-weight: 700; letter-spacing:-0.4px;" data-final-font-size="30">
        <tspan x="500.0" dy="27.13px">Narrative Transportation</tspan>
      </text>
      <rect id="ITEM_2_HEAD_FRAME" x="500" y="359.5" width="760" height="32" fill="none"/>
      <text id="ITEM_2_BODY" x="500.0" y="397.5" text-anchor="start" font-size="24" fill="var(--primary-text)" data-bg-id="ITEM_2_BG" style="font-size: 26px; font-family: Inter, Segoe UI, Kalam, Roboto, Helvetica, Arial, sans-serif; font-weight: 400;" data-final-font-size="26">
        <tspan x="500.0" dy="31.81px">Immersive storytelling lowers the barrier for factual scrutiny</tspan>
      </text>
      <rect id="ITEM_2_BODY_FRAME" x="500" y="397.5" width="860" height="72" fill="none"/>
      <text x="1460" y="383.5" text-anchor="end" font-size="18" font-weight="800" fill="var(--accent-2)" opacity="0.70">02</text>
    </g>
    <g filter="url(#svg61e924b8-shadow)">
      <line x1="404.0" y1="575.0" x2="420.0" y2="575.0" stroke="var(--accent-3)" stroke-width="5" opacity="0.76" stroke-linecap="round"/>
      <rect id="ITEM_3_BG" x="420.0" y="509.0" width="1085" height="152" rx="22" fill="var(--panel)" fill-opacity="0.97" stroke="var(--accent-3)" stroke-width="2.5"/>
      <rect x="420.0" y="509.0" width="1085" height="152" rx="16" fill="url(#svg61e924b8-universal-surface-sheen)" opacity="0.88"/>
      <rect x="420.0" y="509.0" width="14" height="132" rx="7" fill="var(--accent-3)" fill-opacity="0.90"/>
      <circle id="ITEM_3_PAD" cx="360" cy="575.0" r="46" fill="var(--icon-pad-bg)" opacity="0.95" fill-opacity="0.9" stroke-width="2" stroke="var(--primary-text)"/>
      <circle id="ITEM_3_PAD_INNER" cx="360" cy="575.0" r="35.88" fill="var(--accent-6)" fill-opacity="0.22"/>
      <circle cx="360" cy="575.0" r="38" fill="none" stroke="var(--accent-3)" stroke-width="3" stroke-dasharray="6 4"/>
      <g id="ITEM_3_ICON" transform="translate(324, 539.0)" data-icon-size="72" stroke-dasharray="6 4">
        <g transform="translate(-5.142857142857143,-5.142857142857143) scale(2.5714285714285716)">
          <path d="M2 2L16 5L30 2V30L16 27L2 30V2Z" fill="#D3883E"/>
          <path d="M30 2H2L16 16L30 2Z" fill="#F3AD61"/>
          <path d="M30 30H2L16 16L30 30Z" fill="#B97028"/>
          <path d="M5 5H27V9.16406L18 22L5 19L5.00009 16L6.5 13L5.00018 10L5 5Z" fill="#AEDDFF"/>
          <path d="M24.6669 10.1139C25.2169 9.43442 26.0577 9 27 9V15C26.2275 15 25.5232 14.708 24.9914 14.2284C24.8747 15.7786 23.58 17 22 17C20.3431 17 19 15.6569 19 14C19 12.3431 20.3431 11 22 11C22.088 11 22.1751 11.0038 22.2611 11.0112C22.6053 10.4072 23.2551 10 24 10C24.2339 10 24.4583 10.0401 24.6669 10.1139Z" fill="white"/>
          <path d="M5 16V10C5.98142 10 6.85278 10.4713 7.40011 11.1999C7.56722 11.0744 7.77493 11 8 11C8.55228 11 9 11.4477 9 12C10.1046 12 11 12.8954 11 14C11 15.1046 10.1046 16 9 16H5Z" fill="white"/>
          <path d="M8 17.4999L5 19V27H27V12C25.5 12 24.5 12.5 23 14L18.5 18.5C17.5 19.5001 17 20 16 19.5L12 17.4999C10.4 16.6999 8.83333 16.9999 8 17.4999Z" fill="#14A085"/>
          <path d="M27 26.8115V27H5V26.8114C7.56366 24.232 11.538 22.5 16 22.5C20.4619 22.5 24.4363 24.232 27 26.8115Z" fill="#96C34A"/>
          <path d="M19.0561 10.1849C19.3177 10.0678 19.5 9.80518 19.5 9.5C19.5 9.19482 19.3177 8.93221 19.0561 8.8151C19.2241 8.58288 19.2507 8.26431 19.0981 8.00002C18.9455 7.73571 18.6563 7.59943 18.3712 7.62883C18.4006 7.34371 18.2643 7.05454 18 6.90195C17.7357 6.74936 17.4171 6.77591 17.1849 6.94393C17.0678 6.68229 16.8052 6.5 16.5 6.5C16.1948 6.5 15.9322 6.6823 15.8151 6.94394C15.5829 6.77591 15.2643 6.74936 15 6.90195C14.7357 7.05454 14.5994 7.3437 14.6288 7.62882C14.3437 7.59945 14.0546 7.73574 13.902 8.00002C13.7494 8.2643 13.7759 8.58286 13.9439 8.81508C13.6823 8.93218 13.5 9.1948 13.5 9.5C13.5 9.8052 13.6823 10.0678 13.9439 10.1849C13.7759 10.4171 13.7494 10.7357 13.9019 11C14.0545 11.2643 14.3437 11.4006 14.6288 11.3712C14.5994 11.6563 14.7357 11.9455 15 12.0981C15.2643 12.2507 15.5829 12.2241 15.8151 12.0561C15.9322 12.3177 16.1948 12.5 16.5 12.5C16.8052 12.5 17.0678 12.3177 17.1849 12.0561C17.4171 12.2241 17.7357 12.2507 18 12.0981C18.2643 11.9455 18.4006 11.6563 18.3712 11.3712C18.6563 11.4006 18.9455 11.2643 19.0981 11C19.2507 10.7357 19.2241 10.4171 19.0561 10.1849Z" fill="#FF822D"/>
          <path d="M18.7049 9.49989C18.7049 10.7174 17.7179 11.7044 16.5004 11.7044C15.2829 11.7044 14.2959 10.7174 14.2959 9.49989C14.2959 8.28239 15.2829 7.29541 16.5004 7.29541C17.7179 7.29541 18.7049 8.28239 18.7049 9.49989Z" fill="#F9C23C"/>
        </g>
      </g>
      <text id="ITEM_3_HEAD" x="500.0" y="527.0" text-anchor="start" font-weight="800" font-size="30" fill="var(--accent-6)" data-bg-id="ITEM_3_BG" fill-opacity="1.0" stroke="none" style="font-size: 30px; font-family: Inter, Segoe UI, Kalam, Roboto, Helvetica, Arial, sans-serif; font-weight: 700; letter-spacing:-0.4px;" data-final-font-size="30">
        <tspan x="500.0" dy="27.13px">Identifiable Victim Effect</tspan>
      </text>
      <rect id="ITEM_3_HEAD_FRAME" x="500" y="527.0" width="760" height="32" fill="none"/>
      <text id="ITEM_3_BODY" x="500.0" y="565.0" text-anchor="start" font-size="24" fill="var(--primary-text)" data-bg-id="ITEM_3_BG" style="font-size: 26px; font-family: Inter, Segoe UI, Kalam, Roboto, Helvetica, Arial, sans-serif; font-weight: 400;" data-final-font-size="26">
        <tspan x="500.0" dy="31.81px">Specific individuals trigger more empathy than group statistics</tspan>
      </text>
      <rect id="ITEM_3_BODY_FRAME" x="500" y="565.0" width="860" height="72" fill="none"/>
      <text x="1460" y="551.0" text-anchor="end" font-size="18" font-weight="800" fill="var(--accent-3)" opacity="0.70">03</text>
    </g>
    <g filter="url(#svg61e924b8-shadow)">
      <line x1="404.0" y1="742.5" x2="420.0" y2="742.5" stroke="var(--accent-4)" stroke-width="5" opacity="0.76" stroke-linecap="round"/>
      <rect id="ITEM_4_BG" x="420.0" y="676.5" width="1085" height="152" rx="22" fill="var(--panel)" fill-opacity="0.97" stroke="var(--accent-4)" stroke-width="2.5"/>
      <rect x="420.0" y="676.5" width="1085" height="152" rx="16" fill="url(#svg61e924b8-universal-surface-sheen)" opacity="0.88"/>
      <rect x="420.0" y="676.5" width="14" height="132" rx="7" fill="var(--accent-4)" fill-opacity="0.90"/>
      <circle id="ITEM_4_PAD" cx="360" cy="742.5" r="46" fill="var(--icon-pad-bg)" opacity="0.95" fill-opacity="0.9" stroke-width="2" stroke="var(--primary-text)"/>
      <circle id="ITEM_4_PAD_INNER" cx="360" cy="742.5" r="35.88" fill="var(--accent-1)" fill-opacity="0.22"/>
      <circle cx="360" cy="742.5" r="38" fill="none" stroke="var(--accent-4)" stroke-width="3" stroke-dasharray="6 4"/>
      <g id="ITEM_4_ICON" transform="translate(324, 706.5)" data-icon-size="72" stroke-dasharray="6 4">
        <g transform="translate(-2.4827586206896552,-3.103448275862069) scale(2.4827586206896552)">
          <path d="M16.6352 7.58545L21.1451 10.1198L23.7063 14.6565L9.36953 28.9933L4.50768 26.4228L2.29846 21.9222L16.6352 7.58545Z" fill="#FF822D"/>
          <path d="M1.3895 28.0652L1.97165 29.377L3.22663 29.9024L9.35704 28.9771L2.31475 21.9348L1.3895 28.0652Z" fill="#FFCE7C"/>
          <path d="M1.06291 30.2289L1.38948 28.0652L3.22659 29.9023L1.06291 30.2289Z" fill="#402A32"/>
          <path d="M22.2761 1.94443C23.0572 1.16338 24.3235 1.16338 25.1045 1.94443L29.3472 6.18707C30.1282 6.96812 30.1282 8.23445 29.3472 9.0155L25.8117 12.551L21.2845 10.2869L18.7406 5.47996L22.2761 1.94443Z" fill="#F92F60"/>
          <path d="M18.7406 5.47998L25.8117 12.551L23.6903 14.6724L16.6193 7.6013L18.7406 5.47998Z" fill="#D3D3D3"/>
        </g>
      </g>
      <text id="ITEM_4_HEAD" x="500.0" y="694.5" text-anchor="start" font-weight="800" font-size="30" fill="var(--accent-1)" data-bg-id="ITEM_4_BG" fill-opacity="1.0" stroke="none" style="font-size: 30px; font-family: Inter, Segoe UI, Kalam, Roboto, Helvetica, Arial, sans-serif; font-weight: 700; letter-spacing:-0.4px;" data-final-font-size="30">
        <tspan x="500.0" dy="27.13px">Concrete Imagery</tspan>
      </text>
      <rect id="ITEM_4_HEAD_FRAME" x="500" y="694.5" width="760" height="32" fill="none"/>
      <text id="ITEM_4_BODY" x="500.0" y="732.5" text-anchor="start" font-size="24" fill="var(--primary-text)" data-bg-id="ITEM_4_BG" style="font-size: 26px; font-family: Inter, Segoe UI, Kalam, Roboto, Helvetica, Arial, sans-serif; font-weight: 400;" data-final-font-size="26">
        <tspan x="500.0" dy="31.81px">Visual sketches are easier to process than percentages</tspan>
      </text>
      <rect id="ITEM_4_BODY_FRAME" x="500" y="732.5" width="860" height="72" fill="none"/>
      <text x="1460" y="718.5" text-anchor="end" font-size="18" font-weight="800" fill="var(--accent-4)" opacity="0.70">04</text>
    </g>
    <g filter="url(#svg61e924b8-shadow)">
      <line x1="404.0" y1="910.0" x2="420.0" y2="910.0" stroke="var(--accent-5)" stroke-width="5" opacity="0.76" stroke-linecap="round"/>
      <rect id="ITEM_5_BG" x="420.0" y="844.0" width="1085" height="152" rx="22" fill="var(--panel)" fill-opacity="0.97" stroke="var(--accent-5)" stroke-width="2.5"/>
      <rect x="420.0" y="844.0" width="1085" height="152" rx="16" fill="url(#svg61e924b8-universal-surface-sheen)" opacity="0.88"/>
      <rect x="420.0" y="844.0" width="14" height="132" rx="7" fill="var(--accent-5)" fill-opacity="0.90"/>
      <circle id="ITEM_5_PAD" cx="360" cy="910.0" r="46" fill="var(--icon-pad-bg)" opacity="0.95" fill-opacity="0.9" stroke-width="2" stroke="var(--primary-text)"/>
      <circle id="ITEM_5_PAD_INNER" cx="360" cy="910.0" r="35.88" fill="var(--accent-2)" fill-opacity="0.22"/>
      <circle cx="360" cy="910.0" r="38" fill="none" stroke="var(--accent-5)" stroke-width="3" stroke-dasharray="6 4"/>
      <g id="ITEM_5_ICON" transform="translate(324, 874.0)" data-icon-size="72" stroke-dasharray="6 4">
        <g transform="translate(-5.142857142857143,-5.142857142857143) scale(2.5714285714285716)">
          <path d="M23.6231 21.4249L24.6179 22.4209C25.1551 22.9587 26.0206 22.9587 26.5578 22.4209L29.7015 19.2737C30.0995 18.8753 30.0995 18.2379 29.7015 17.8395L23.8718 12.0033C23.6927 11.824 23.6927 11.5452 23.8718 11.3659C23.9812 11.2564 24.1304 11.2165 24.2697 11.2464C25.2148 11.4058 26.2196 11.1269 26.9458 10.3999C28.1496 9.19476 28.1396 7.23276 26.916 6.03762L26.0604 5.17115L25.6724 5.30063C24.6975 5.0118 23.6032 5.22095 22.7973 5.91811C21.9617 6.64515 21.6234 7.71081 21.7826 8.70675C21.8025 8.85614 21.7627 8.99557 21.6533 9.10513L21.6334 9.12505C21.4543 9.30432 21.1758 9.30432 20.9967 9.12505L15.1669 3.29878C14.769 2.90041 14.1323 2.90041 13.7343 3.29878L10.6205 6.41608C10.5409 6.49576 10.4812 6.58539 10.4215 6.67503L10.2126 6.46588L9.47642 7.20288L10.6205 8.34821L10.6404 8.36813C10.9189 8.64699 11.297 8.79638 11.685 8.77647C12.5803 8.73663 13.4956 9.08521 14.1422 9.83216C15.1271 10.9675 15.1371 12.6905 14.1422 13.8359C12.9683 15.1903 10.9189 15.2501 9.66544 14.0052C9.01879 13.3578 8.72034 12.5013 8.78003 11.6547C8.79993 11.2663 8.66065 10.8879 8.38209 10.609C8.37214 10.5891 8.3622 10.5791 8.35225 10.5692L7.3773 9.59314L6.94952 10.0314L7.13854 10.2206C6.87988 10.2704 6.64112 10.3999 6.44215 10.599L3.29845 13.7462C2.90052 14.1446 2.90052 14.782 3.29845 15.1804L9.13817 21.0266C9.31724 21.2058 9.31724 21.4847 9.13817 21.664C9.02874 21.7735 8.87951 21.8134 8.74024 21.7835C7.73545 21.6142 6.66102 21.9428 5.92483 22.7794C4.92999 23.9148 4.92004 25.6477 5.91489 26.7931C7.0888 28.1475 9.13817 28.2073 10.3917 26.9524C11.108 26.2353 11.3965 25.2394 11.2472 24.3132C11.2273 24.1638 11.2671 24.0243 11.3766 23.9148L11.3965 23.8949C11.5755 23.7156 11.8541 23.7156 12.0332 23.8949L17.8331 29.7012C18.231 30.0996 18.8677 30.0996 19.2657 29.7012L22.3795 26.5839C22.9167 26.0461 22.9167 25.1796 22.3795 24.6418L22.3596 24.6219L21.4742 23.7355L21.0862 24.1239L21.1957 24.2335C20.3401 24.2335 19.4845 23.8849 18.8677 23.1778C17.8828 22.0424 17.8729 20.3194 18.8677 19.1741C20.0416 17.8196 22.091 17.7599 23.3445 19.0048C23.8618 19.5227 24.1603 20.19 24.22 20.8672L24.2001 20.8473L23.6231 21.4249Z" fill="#D3D3D3"/>
          <path d="M21.7702 4.90923C20.9348 5.63653 20.5967 6.70258 20.7558 7.69889C20.7757 7.84834 20.7359 7.98782 20.6265 8.09742L20.6066 8.11734C20.4276 8.29668 20.1492 8.29668 19.9702 8.11734L14.1525 2.29889C13.7547 1.90037 13.1182 1.90037 12.7204 2.29889L9.60773 5.41734C9.07072 5.95535 9.07072 6.82214 9.60773 7.36015L9.63757 7.38007C9.90608 7.64908 10.284 7.79852 10.6718 7.7786C11.5669 7.73875 12.4818 8.08745 13.1282 8.83469C14.1127 9.97048 14.1227 11.6941 13.1282 12.8399C11.9547 14.1948 9.90608 14.2546 8.65304 13.0092C8.01657 12.3517 7.71823 11.4948 7.76796 10.648C7.79779 10.2594 7.64862 9.87085 7.37017 9.60185C6.83315 9.06384 5.96796 9.06384 5.43094 9.60185L2.29834 12.7402C1.90055 13.1387 1.90055 13.7764 2.29834 14.1749L8.13591 20.0232C8.31492 20.2026 8.31492 20.4815 8.13591 20.6609C8.02652 20.7705 7.87735 20.8103 7.73812 20.7804C6.7337 20.6111 5.65967 20.9399 4.92376 21.7768C3.92928 22.9125 3.91934 24.6461 4.91381 25.7919C6.08729 27.1469 8.13591 27.2066 9.38895 25.9513C10.105 25.2339 10.3934 24.2376 10.2442 23.3111C10.2243 23.1616 10.2641 23.0221 10.3735 22.9125L10.3934 22.8926C10.5724 22.7133 10.8508 22.7133 11.0298 22.8926L16.8276 28.7011C17.2254 29.0996 17.8619 29.0996 18.2597 28.7011L21.3724 25.5827C21.9094 25.0447 21.9094 24.1779 21.3724 23.6399L21.3525 23.6199C21.084 23.3509 20.7061 23.2015 20.3182 23.2214C19.4232 23.2613 18.5083 22.9125 17.8619 22.1653C16.8773 21.0295 16.8674 19.3059 17.8619 18.1601C19.0354 16.8052 21.084 16.7454 22.337 17.9908C22.9834 18.6384 23.2818 19.4952 23.2221 20.3421C23.2022 20.7306 23.3414 21.1092 23.6199 21.3882C24.1569 21.9262 25.0221 21.9262 25.5591 21.3882L28.7017 18.2399C29.0994 17.8413 29.0994 17.2037 28.7017 16.8052L22.874 10.9668C22.695 10.7875 22.695 10.5085 22.874 10.3292C22.9834 10.2196 23.1326 10.1797 23.2718 10.2096C24.2166 10.369 25.221 10.09 25.947 9.36273C27.1901 8.11734 27.1403 6.05498 25.7779 4.87934C24.6243 3.92288 22.9039 3.92288 21.7702 4.90923Z" fill="#C3EF3C"/>
        </g>
      </g>
      <text id="ITEM_5_HEAD" x="500.0" y="862.0" text-anchor="start" font-weight="800" font-size="30" fill="var(--accent-2)" data-bg-id="ITEM_5_BG" fill-opacity="1.0" stroke="none" style="font-size: 30px; font-family: Inter, Segoe UI, Kalam, Roboto, Helvetica, Arial, sans-serif; font-weight: 700; letter-spacing:-0.4px;" data-final-font-size="30">
        <tspan x="500.0" dy="27.13px">Coherence Seeking</tspan>
      </text>
      <rect id="ITEM_5_HEAD_FRAME" x="500" y="862.0" width="760" height="32" fill="none"/>
      <text id="ITEM_5_BODY" x="500.0" y="900.0" text-anchor="start" font-size="24" fill="var(--primary-text)" data-bg-id="ITEM_5_BG" style="font-size: 26px; font-family: Inter, Segoe UI, Kalam, Roboto, Helvetica, Arial, sans-serif; font-weight: 400;" data-final-font-size="26">
        <tspan x="500.0" dy="31.81px">Humans prefer a complete story over contradictory data</tspan>
      </text>
      <rect id="ITEM_5_BODY_FRAME" x="500" y="900.0" width="860" height="72" fill="none"/>
      <text x="1460" y="886.0" text-anchor="end" font-size="18" font-weight="800" fill="var(--accent-5)" opacity="0.70">05</text>
    </g>
  </g>
</svg>
